<svg xmlns="http://www.w3.org/2000/svg" width="16" height="16" viewBox="0 0 16 16">
  <path fill="#000000" d="M11.3137,0 L16,4.68629 L16,11.3137 L11.3137,16 L4.68629,16 L0,11.3137 L0,4.68629 L4.68629,0 L11.3137,0 Z M10.4853,2 L5.51472,2 L2,5.51472 L2,10.4853 L5.51472,14 L10.4853,14 L14,10.4853 L14,5.51472 L10.4853,2 Z M8.04044,10 C8.59273,10 9.04047,10.4477 9.04047,11 C9.04047,11.5523 8.59275,12 8.04047,12 C7.48818,12 7.04047,11.5523 7.04047,11 C7.04047,10.4477 7.48817,10 8.04044,10 Z M8.04044,4 C8.76623,4 9.2686,4.72492 9.01376,5.40449 L8.04044,10 L7.06713,5.40449 C6.81229,4.72492 7.31466,4 8.04044,4 Z"/>
</svg>
