<svg xmlns="http://www.w3.org/2000/svg" width="16" height="16" viewBox="0 0 16 16">
  <path fill="#000000" fillRule="evenodd" d="M4,2 C5.65685425,2 7,3.34314575 7,5 C7,5.67575081 6.7765771,6.2993184 6.39957171,6.80086239 C7.37120562,7.52882672 8,8.69098363 8,10 L8,14 L2.93098879e-14,14 L2.93098879e-14,10 C2.93098879e-14,8.69098363 0.628794382,7.52882672 1.60081401,6.79909841 C1.2234229,6.2993184 1,5.67575081 1,5 C1,3.34314575 2.34314575,2 4,2 Z M4,8 C2.89543475,8 2,8.89543475 2,10 L2,12 L6,12 L6,10 C6,8.89543475 5.10456525,8 4,8 Z M12.277,1 C12.4783,1 12.6761,1.01487 12.8694,1.04356 L13.1874,2.14065 C13.6042,2.27325 13.9815,2.49445 14.2972,2.78213 L15.4068,2.50887 C15.6523,2.81689 15.8533,3.16198 16,3.53438 L15.2083,4.35894 C15.2533,4.56549 15.277,4.77998 15.277,5 C15.277,5.22002 15.2533,5.43451 15.2083,5.64106 L16,6.46562 C15.8533,6.83802 15.6523,7.18311 15.4068,7.49113 L14.2972,7.21787 C13.9815,7.50555 13.6042,7.72675 13.1874,7.85935 L12.8694,8.95644 C12.6761,8.98513 12.4783,9 12.277,9 C12.0757,9 11.8779,8.98513 11.6846,8.95644 L11.3666,7.85939 C10.9498,7.72681 10.5725,7.50559 10.2568,7.2179 L9.14728,7.49113 C8.90179,7.18311 8.70081,6.83802 8.55408,6.46562 L9.34564,5.64117 C9.30066,5.43459 9.27698,5.22006 9.27698,5 C9.27698,4.77994 9.30066,4.56541 9.34564,4.35883 L8.55408,3.53438 C8.70081,3.16198 8.90179,2.81689 9.14728,2.50887 L10.2568,2.7821 C10.5725,2.49441 10.9498,2.27319 11.3666,2.14061 L11.6846,1.04356 C11.8779,1.01487 12.0757,1 12.277,1 Z M4,4 C3.44771525,4 3,4.44771525 3,5 C3,5.55228475 3.44771525,6 4,6 C4.55228475,6 5,5.55228475 5,5 C5,4.44771525 4.55228475,4 4,4 Z M12.277,4 C11.7247,4 11.277,4.44772 11.277,5 C11.277,5.55228 11.7247,6 12.277,6 C12.8293,6 13.277,5.55228 13.277,5 C13.277,4.44772 12.8293,4 12.277,4 Z"/>
</svg>
