<svg xmlns="http://www.w3.org/2000/svg" width="16" height="16" viewBox="0 0 16 16">
  <path fill="#000000" d="M3.70711,2.29289 L8.70711,7.29289 C9.09763,7.68342 9.09763,8.31658 8.70711,8.70711 L3.70711,13.7071 C3.31658,14.0976 2.68342,14.0976 2.29289,13.7071 C1.90237,13.3166 1.90237,12.6834 2.29289,12.2929 L6.58579,8 L2.29289,3.70711 C1.90237,3.31658 1.90237,2.68342 2.29289,2.29289 C2.68342,1.90237 3.31658,1.90237 3.70711,2.29289 Z M8.70711,2.29289 L13.7071,7.29289 C14.0976,7.68342 14.0976,8.31658 13.7071,8.70711 L8.70711,13.7071 C8.31658,14.0976 7.68342,14.0976 7.29289,13.7071 C6.90237,13.3166 6.90237,12.6834 7.29289,12.2929 L11.5858,8 L7.29289,3.70711 C6.90237,3.31658 6.90237,2.68342 7.29289,2.29289 C7.68342,1.90237 8.31658,1.90237 8.70711,2.29289 Z"/>
</svg>
