<svg xmlns="http://www.w3.org/2000/svg" width="16" height="16" viewBox="0 0 16 16">
  <path fill="#000000" fillRule="evenodd" d="M2,9 L6,9 C6.51283143,9 6.93550653,9.38604429 6.9932722,9.88337975 L7,10 L7,14 C7,14.51285 6.61395571,14.9355092 6.11662025,14.9932725 L6,15 L2,15 C1.48716857,15 1.06449347,14.613973 1.0067278,14.1166239 L1,14 L1,10 C1,9.48716857 1.38604429,9.06449347 1.88337975,9.0067278 L2,9 L6,9 L2,9 Z M14,9 C14.5523,9 15,9.44772 15,10 L15,14 C15,14.5523 14.5523,15 14,15 L10,15 C9.44772,15 9,14.5523 9,14 L9,10 C9,9.44772 9.44772,9 10,9 L14,9 Z M5,11 L3,11 L3,13 L5,13 L5,11 Z M6,1 C6.55228,1 7,1.44772 7,2 L7,6 C7,6.55228 6.55228,7 6,7 L2,7 C1.44772,7 1,6.55228 1,6 L1,2 C1,1.44772 1.44772,1 2,1 L6,1 Z M14,1 C14.5523,1 15,1.44772 15,2 L15,6 C15,6.55228 14.5523,7 14,7 L10,7 C9.44772,7 9,6.55228 9,6 L9,2 C9,1.44772 9.44772,1 10,1 L14,1 Z M5,3 L3,3 L3,5 L5,5 L5,3 Z M13,3 L11,3 L11,5 L13,5 L13,3 Z"/>
</svg>
