<svg xmlns="http://www.w3.org/2000/svg" width="16" height="16" viewBox="0 0 16 16">
  <path fill="#000000" fillRule="evenodd" d="M4,2 C5.65685425,2 7,3.34314575 7,5 C7,5.67575081 6.7765771,6.2993184 6.39957171,6.80086239 C7.37120562,7.52882672 8,8.69098363 8,10 L8,14 L0,14 L0,10 C0,8.69098363 0.628794382,7.52882672 1.60081401,6.79909841 C1.2234229,6.2993184 1,5.67575081 1,5 C1,3.34314575 2.34314575,2 4,2 Z M4,8 C2.89543475,8 2,8.89543475 2,10 L2,12 L6,12 L6,10 C6,8.89543475 5.10456525,8 4,8 Z M14.2928932,3.29289322 C14.6834175,2.90236893 15.3165825,2.90236893 15.7071068,3.29289322 C16.0976311,3.68341751 16.0976311,4.31658249 15.7071068,4.70710678 L12.7071068,7.70710678 C12.3165825,8.09763107 11.6834175,8.09763107 11.2928932,7.70710678 L9.79289322,6.20710678 C9.40236893,5.81658249 9.40236893,5.18341751 9.79289322,4.79289322 C10.1834175,4.40236893 10.8165825,4.40236893 11.2071068,4.79289322 L12,5.58578644 L14.2928932,3.29289322 Z M4,4 C3.44771525,4 3,4.44771525 3,5 C3,5.55228475 3.44771525,6 4,6 C4.55228475,6 5,5.55228475 5,5 C5,4.44771525 4.55228475,4 4,4 Z"/>
</svg>
