<svg xmlns="http://www.w3.org/2000/svg" width="16" height="16" viewBox="0 0 16 16">
  <path fill="#000000" fillRule="evenodd" d="M4,2 C5.65685425,2 7,3.34314575 7,5 C7,5.67575081 6.7765771,6.2993184 6.39957171,6.80086239 C7.37120562,7.52882672 8,8.69098363 8,10 L8,14 L0,14 L0,10 C0,8.69098363 0.628794382,7.52882672 1.60081401,6.79909841 C1.2234229,6.2993184 1,5.67575081 1,5 C1,3.34314575 2.34314575,2 4,2 Z M4,8 C2.89543475,8 2,8.89543475 2,10 L2,12 L6,12 L6,10 C6,8.89543475 5.10456525,8 4,8 Z M13,2 C13.5523,2 14,2.44771 14,3 L14,4 L15,4 C15.5523,4 16,4.44771 16,5 C16,5.55229 15.5523,6 15,6 L14,6 L14,7 C14,7.55228 13.5523,8 13,8 C12.4477,8 12,7.55228 12,7 L12,6 L11,6 C10.4477,6 10,5.55229 10,5 C10,4.44771 10.4477,4 11,4 L12,4 L12,3 C12,2.44771 12.4477,2 13,2 Z M4,4 C3.44771525,4 3,4.44771525 3,5 C3,5.55228475 3.44771525,6 4,6 C4.55228475,6 5,5.55228475 5,5 C5,4.44771525 4.55228475,4 4,4 Z"/>
</svg>
