<svg xmlns="http://www.w3.org/2000/svg" width="16" height="16" viewBox="0 0 16 16">
  <path fill="#000000" d="M4,2 L7.96296,2 C8.59259,2 9.17901,2.04923 9.72222,2.14769 C10.2778,2.23385 10.7593,2.38769 11.1667,2.60923 C11.5741,2.83077 11.8951,3.13846 12.1296,3.53231 C12.3642,3.91385 12.4815,4.4 12.4815,4.99077 C12.4815,5.24923 12.4383,5.51385 12.3519,5.78462 C12.2778,6.04308 12.1543,6.29538 11.9815,6.54154 C11.821,6.77538 11.6111,6.98461 11.3519,7.16923 C11.0926,7.35385 10.7901,7.48923 10.4444,7.57538 L10.4444,7.64923 C11.2963,7.82154 11.9321,8.13538 12.3519,8.59077 C12.784,9.03385 13,9.65539 13,10.4554 C13,11.0708 12.8765,11.6062 12.6296,12.0615 C12.3951,12.5046 12.0617,12.8738 11.6296,13.1692 C11.2099,13.4523 10.716,13.6615 10.1481,13.7969 C9.58025,13.9323 8.97531,14 8.33333,14 L4,14 L4,2 Z M7.88889,6.72615 C8.40741,6.72615 8.78395,6.60923 9.01852,6.37538 C9.25309,6.14154 9.37037,5.84 9.37037,5.47077 C9.37037,5.10154 9.25309,4.83692 9.01852,4.67692 C8.78395,4.51692 8.40741,4.43692 7.88889,4.43692 L7,4.43692 L7,6.72615 L7.88889,6.72615 Z M8.11111,11.5631 C8.74074,11.5631 9.19136,11.4462 9.46296,11.2123 C9.74691,10.9785 9.88889,10.64 9.88889,10.1969 C9.88889,9.75385 9.74691,9.43385 9.46296,9.23692 C9.19136,9.04 8.74074,8.94154 8.11111,8.94154 L7,8.94154 L7,11.5631 L8.11111,11.5631 Z"/>
</svg>
