<svg xmlns="http://www.w3.org/2000/svg" width="16" height="16" viewBox="0 0 16 16">
  <path fill="#000000" fillRule="evenodd" d="M4,1 C5.10457,1 6,1.89543 6,3 C6,3.68333538 5.65729704,4.28663574 5.13438762,4.6473967 L5,4.73244 L5,7.8769 C5.29555,7.60672 5.61974,7.36343 5.96975,7.152 C6.12346,7.05568 6.30523,7 6.5,7 C7.05228,7 7.5,7.44772 7.5,8 C7.5,8.32869333 7.34141432,8.62034568 7.09658316,8.80262387 L7.00087,8.86571 C6.06926,9.42953 5.40929,10.328 5.13774,11.3549 C5.65876,11.7159 6,12.3181 6,13 C6,14.1046 5.10457,15 4,15 C2.89543,15 2,14.1046 2,13 C2,12.3166462 2.34270296,11.713387 2.86561238,11.3526403 L3,11.2676 L3,4.73244 C2.4022,4.38663 2,3.74028 2,3 C2,1.89543 2.89543,1 4,1 Z M8.29289,1.29289 C8.65337923,0.932409077 9.22060645,0.904679775 9.61290152,1.20970209 L9.70711,1.29289 L11,2.58579 L12.2929,1.29289 C12.6834,0.902369 13.3166,0.902369 13.7071,1.29289 C14.0675615,1.65337923 14.0952893,2.22060645 13.7902834,2.61290152 L13.7071,2.70711 L12.4142,3.99999925 L13.7071,5.29289 C14.0976,5.68342 14.0976,6.31658 13.7071,6.70711 C13.3466385,7.06759 12.7793793,7.09531923 12.3871027,6.79029769 L12.2929,6.70711 L11,5.41421 L9.70711,6.70711 C9.31658,7.09763 8.68342,7.09763 8.29289,6.70711 C7.93241,6.34662077 7.90468077,5.77939355 8.20970231,5.38709848 L8.29289,5.29289 L9.58579,3.99999925 L8.29289,2.70711 C7.90237,2.31658 7.90237,1.68342 8.29289,1.29289 Z"/>
</svg>
