<svg xmlns="http://www.w3.org/2000/svg" width="16" height="16" viewBox="0 0 16 16">
  <path fill="#000000" fillRule="evenodd" d="M5,13 C4.44772,13 4,12.5523 4,12 C4,10.799 3.97687,10.6622 3.2318,9.64252 C2.45908,8.63254 2,7.36988 2,6 C2,2.68629 4.68629,0 8,0 C11.3137,0 14,2.68629 14,6 C14,7.36989 13.5409,8.63255 12.7682,9.64253 C12.0231,10.6622 12,10.799 12,12 C12,12.5523 11.5523,13 11,13 L11,15 C11,15.5523 10.5523,16 10,16 L6,16 C5.44772,16 5,15.5523 5,15 L5,13 Z M11.1798,8.42725 L11.1664,8.44476 L11.1488,8.46887 C10.807,8.93663 10.4108,9.47878 10.1983,10.1485 C10.1072,10.4357 10.0578,10.7237 10.0311,11 L5.96891,11 C5.94219,10.7237 5.89278,10.4357 5.80166,10.1485 C5.5892,9.47878 5.19304,8.93663 4.85124,8.46887 L4.83362,8.44475 L4.82023,8.42725 C4.30511,7.75396 4,6.91546 4,6 C4,3.79086 5.79086,2 8,2 C10.2091,2 12,3.79086 12,6 C12,6.91546 11.6949,7.75396 11.1798,8.42725 Z M9,13 L7,13 L7,14 L9,14 L9,13 Z"/>
</svg>
