<svg xmlns="http://www.w3.org/2000/svg" width="16" height="16" viewBox="0 0 16 16">
  <path fill="#000000" fillRule="evenodd" d="M4,5 C2.34315,5 1,6.34315 1,8 C1,9.65685 2.34315,11 4,11 L4.11326,11 L6.137,14.5052 C6.31501,14.8135 6.64398,15.0035 7,15.0035 C7.76714,15.0035 8.24661,14.173 7.86304,13.5087 L6.41466,11 L8.00004,11 L13.5039,14.145 C14.1705,14.526 15,14.0446 15,13.2768 L15,2.72316 C15,1.95533 14.1705,1.47397 13.5039,1.85491 L8,4.99998 L4,5 Z M4,6.99998 L7,6.99998 L7,9 L4,9 C3.44772,9 3,8.55228 3,8 C3,7.44772 3.44773,6.99998 4,6.99998 Z M13,11.5536 L9,9.2679 L9,6.73205 L13,4.44634 L13,11.5536 Z"/>
</svg>
