<svg xmlns="http://www.w3.org/2000/svg" width="16" height="16" viewBox="0 0 16 16">
  <path fill="#000000" fillRule="evenodd" d="M11,1 C11.5522847,1 12,1.44771525 12,2 L12,3 L13,3 C14.1045695,3 15,3.8954305 15,5 L15,13 C15,14.1045695 14.1045695,15 13,15 L3,15 C1.8954305,15 1,14.1045695 1,13 L1,5 C1,3.8954305 1.8954305,3 3,3 L4,3 L4,2 C4,1.44771525 4.44771525,1 5,1 C5.55228475,1 6,1.44771525 6,2 L6,3 L10,3 L10,2 C10,1.44771525 10.4477153,1 11,1 Z M13,8 L3,8 L3,13 L13,13 L13,8 Z M13,5 L3,5 L3,6 L13,6 L13,5 Z"/>
</svg>
