<svg xmlns="http://www.w3.org/2000/svg" width="16" height="16" viewBox="0 0 16 16">
  <path fill="#000000" fillRule="evenodd" d="M8,1 C11.8659932,1 15,4.13400675 15,8 C15,11.8659932 11.8659932,15 8,15 C4.13400675,15 1,11.8659932 1,8 C1,4.13400675 4.13400675,1 8,1 Z M3,8 C3,10.7614237 5.23857625,13 8,13 C9.01910722,13 9.96700318,12.6951083 10.7574478,12.1715651 L3.8284349,5.24255219 C3.30489166,6.03299682 3,6.98089278 3,8 Z M8,3 C6.98089278,3 6.03299682,3.30489166 5.24255219,3.8284349 L12.1715651,10.7574478 C12.6951083,9.96700318 13,9.01910722 13,8 C13,5.23857625 10.7614237,3 8,3 Z"/>
</svg>
