<svg xmlns="http://www.w3.org/2000/svg" width="16" height="16" viewBox="0 0 16 16">
  <path fill="#000000" fillRule="evenodd" d="M2.35418,6 L2,6 C1.44772,6 1,5.55228 1,5 C1,4.44772 1.44772,4 2,4 L3,4 C3,2.34315 4.34315,1 6,1 L10,1 C11.6569,1 13,2.34315 13,4 L14,4 C14.5523,4 15,4.44772 15,5 C15,5.55228 14.5523,6 14,6 L13.6458,6 C14.4762,6.73294 15,7.80531 15,9 L15,14 C15,14.5523 14.5523,15 14,15 L13,15 C12.4477,15 12,14.5523 12,14 L12,13 L4,13 L4,14 C4,14.5523 3.55228,15 3,15 L2,15 C1.44772,15 1,14.5523 1,14 L1,9 C1,7.80531 1.52376,6.73294 2.35418,6 Z M10,3 L6,3 C5.44772,3 5,3.44772 5,4 L5,5 L11,5 L11,4 C11,3.44772 10.5523,3 10,3 Z M13,11 L11,11 L11,9 L5,9 L5,11 L3,11 L3,9 C3,7.89543 3.89543,7 5,7 L11,7 C12.1046,7 13,7.89543 13,9 L13,11 Z"/>
</svg>
