<svg xmlns="http://www.w3.org/2000/svg" width="16" height="16" viewBox="0 0 16 16">
  <path fill="#000000" d="M2,1 C2.51283143,1 2.93550653,1.38604429 2.9932722,1.88337975 L3,2 L3,13 L14,13 C14.5523,13 15,13.4477 15,14 C15,14.51285 14.613973,14.9355092 14.1166239,14.9932725 L14,15 L3,15 C1.94563773,15 1.08183483,14.18415 1.00548573,13.1492661 L1,13 L1,2 C1,1.44772 1.44772,1 2,1 Z M6,7 C6.51283143,7 6.93550653,7.38604429 6.9932722,7.88337975 L7,8 L7,10 C7,10.5523 6.55228,11 6,11 C5.48716857,11 5.06449347,10.613973 5.0067278,10.1166239 L5,10 L5,8 C5,7.44771 5.44772,7 6,7 Z M10,3 C10.5523,3 11,3.44772 11,4 L11,10 C11,10.5523 10.5523,11 10,11 C9.44771,11 9,10.5523 9,10 L9,4 C9,3.44772 9.44771,3 10,3 Z M14,5 C14.5523,5 15,5.44772 15,6 L15,10 C15,10.5523 14.5523,11 14,11 C13.4477,11 13,10.5523 13,10 L13,6 C13,5.44772 13.4477,5 14,5 Z"/>
</svg>
