<svg xmlns="http://www.w3.org/2000/svg" width="16" height="16" viewBox="0 0 16 16">
  <path fill="#000000" fillRule="evenodd" d="M8,0 C12.4183,0 16,3.58172 16,8 C16,12.4183 12.4183,16 8,16 C3.58172,16 0,12.4183 0,8 C0,3.58172 3.58172,0 8,0 Z M8,2 C4.68629,2 2,4.68629 2,8 C2,11.3137 4.68629,14 8,14 C11.3137,14 14,11.3137 14,8 C14,4.68629 11.3137,2 8,2 Z M7,8.58579 L10.2929,5.29289 C10.6834,4.90237 11.3166,4.90237 11.7071,5.29289 C12.0675615,5.65337923 12.0952893,6.22060645 11.7902834,6.61290152 L11.7071,6.70711 L7.70711,10.7071 C7.34662077,11.0675615 6.77939355,11.0952893 6.38709848,10.7902834 L6.29289,10.7071 L4.29289,8.70711 C3.90237,8.31658 3.90237,7.68342 4.29289,7.29289 C4.65337923,6.93241 5.22060645,6.90468077 5.61290152,7.20970231 L5.70711,7.29289 L7,8.58579 L10.2929,5.29289 L7,8.58579 Z"/>
</svg>
