<svg xmlns="http://www.w3.org/2000/svg" width="16" height="16" viewBox="0 0 16 16">
  <path fill="#000000" fillRule="evenodd" d="M8,16 C12.4183,16 16,12.4183 16,8 C16,3.58172 12.4183,0 8,0 C3.58172,0 0,3.58172 0,8 C0,12.4183 3.58172,16 8,16 Z M11.7071,6.70711 C12.0976,6.31658 12.0976,5.68342 11.7071,5.29289 C11.3166,4.90237 10.6834,4.90237 10.2929,5.29289 L7,8.58579 L5.70711,7.29289 C5.31658,6.90237 4.68342,6.90237 4.29289,7.29289 C3.90237,7.68342 3.90237,8.31658 4.29289,8.70711 L6.29289,10.7071 C6.68342,11.0976 7.31658,11.0976 7.70711,10.7071 L11.7071,6.70711 Z"/>
</svg>
