<svg xmlns="http://www.w3.org/2000/svg" width="16" height="16" viewBox="0 0 16 16">
  <path fill="#000000" d="M8,8 C9.86658,8 11.4346,9.27853 11.8759,11.0076 L11.9374625,11.001925 L11.9374625,11.001925 L15,11 C15.5523,11 16,11.4477 16,12 C16,12.5523 15.5523,13 15,13 L12,13 C11.958,13 11.9166,12.9974 11.8759,12.9924 C11.4346,14.7215 9.86658,16 8,16 C6.13342,16 4.56545,14.7215 4.12406,12.9924 C4.08342,12.9974 4.04201,13 4,13 L1,13 C0.447715,13 0,12.5523 0,12 C0,11.4477 0.447715,11 1,11 L4,11 C4.04201,11 4.08342,11.0026 4.12406,11.0076 C4.56545,9.27853 6.13342,8 8,8 Z M8,10 C6.89543,10 6,10.8954 6,12 C6,13.1046 6.89543,14 8,14 C9.10457,14 10,13.1046 10,12 C10,10.8954 9.10457,10 8,10 Z M8,0 C8.55228,0 9,0.447715 9,1 L9,3.06274 C10.2966,3.2261 11.539,3.70545 12.6148,4.4652 C12.8065,4.60056 12.9974,4.8509 12.9974,5 L13,7 C13,7.55228 12.5523,8 12,8 C11.4477,8 11,7.55228 11,7 L11,5.80384 C10.0903,5.2786 9.05546,4.99975 7.99859,5 C6.94267,5.00025 5.9089,5.27908 5,5.80384 L5,7 C5,7.55228 4.55228,8 4,8 C3.44772,8 3,7.55228 3,7 L3.00048,5 C3,4.84589 3.19124,4.60231 3.38213,4.46737 C4.45865,3.70638 5.70209,3.22626 7,3.06274 L7,1 C7,0.447715 7.44772,0 8,0 Z"/>
</svg>
