<svg xmlns="http://www.w3.org/2000/svg" width="16" height="16"><path d="M5.057 5.412A2 2 0 0 1 3.324 7.01a1.5 1.5 0 0 0-.735 2.682A.999.999 0 0 1 2 11.5a.996.996 0 0 1-.614-.21 3.5 3.5 0 0 1 1.71-6.266 5.002 5.002 0 0 1 9.508-.979 4.001 4.001 0 0 1 2.034 6.962 1.002 1.002 0 0 1-1.273-1.545 2 2 0 0 0-1.06-3.44 2 2 0 0 1-1.542-1.194 3.001 3.001 0 0 0-5.706.584zM4.87 8.509l1.11.273c.32-.291.698-.51 1.11-.641l.318-1.097a4.033 4.033 0 0 1 1.184 0L8.91 8.14c.417.132.795.353 1.11.641l1.11-.273c.245.308.446.653.593 1.025l-.792.825c.092.422.092.86 0 1.282l.792.825c-.146.37-.346.715-.593 1.025l-1.11-.273c-.32.291-.698.51-1.11.641l-.318 1.097a4.032 4.032 0 0 1-1.184 0L7.09 13.86a2.997 2.997 0 0 1-1.11-.641l-1.11.273a3.996 3.996 0 0 1-.593-1.025l.792-.825a3.011 3.011 0 0 1 0-1.282l-.792-.825c.147-.372.348-.717.593-1.025v-.001zM8 12a1 1 0 1 0 0-2 1 1 0 0 0 0 2z"/></svg>