<svg xmlns="http://www.w3.org/2000/svg" width="16" height="16" viewBox="0 0 16 16">
  <path fill="#000000" d="M9.81175,1.23848 C10.3070964,1.37121929 10.6154651,1.85349541 10.5425767,2.3488407 L10.5189,2.46323 L7.41303,14.0543 C7.27009,14.5878 6.72175,14.9044 6.18828,14.7614 C5.69292429,14.6287071 5.38457224,14.1464602 5.45749504,13.6510948 L5.48118,13.5367 L8.58701,1.94559 C8.72995,1.41213 9.27829,1.09554 9.81175,1.23848 Z M4.70711,4.29288 C5.09763,4.68341 5.09763,5.31657 4.70711,5.7071 L2.41421,7.99999 L4.70711,10.2929 C5.09763,10.6834 5.09763,11.3166 4.70711,11.7071 C4.31658,12.0976 3.68342,12.0976 3.29289,11.7071 L0.292893,8.7071 C-0.0976311,8.31657 -0.0976311,7.68341 0.292893,7.29288 L3.29289,4.29288 C3.68342,3.90236 4.31658,3.90236 4.70711,4.29288 Z M11.2929,4.29288 C11.6533615,3.9324 12.2206207,3.90467077 12.6128973,4.20969231 L12.7071,4.29288 L15.7071,7.29288 C16.0675615,7.65336923 16.0952893,8.22059645 15.7902834,8.61289152 L15.7071,8.7071 L12.7071,11.7071 C12.3166,12.0976 11.6834,12.0976 11.2929,11.7071 C10.9324385,11.3466385 10.9047107,10.7793793 11.2097166,10.3871027 L11.2929,10.2929 L13.5858,7.99999 L11.2929,5.7071 C10.9024,5.31657 10.9024,4.68341 11.2929,4.29288 Z"/>
</svg>
