<svg xmlns="http://www.w3.org/2000/svg" width="16" height="16" viewBox="0 0 16 16">
  <path fill="#000000" d="M2,3 C2.55228,3 3,3.44772 3,4 L3,12 C3,12.5523 2.55229,13 2,13 C1.44772,13 1,12.5523 1,12 L1,4 C1,3.44772 1.44772,3 2,3 Z M7.29289,4.29289 C7.68342,3.90237 8.31658,3.90237 8.7071,4.29289 C9.09763,4.68342 9.09763,5.31658 8.7071,5.70711 L7.41421,7 L14,7 C14.5523,7 15,7.44772 15,8 C15,8.55228 14.5523,9 14,9 L7.41421,9 L8.7071,10.2929 C9.09763,10.6834 9.09763,11.3166 8.7071,11.7071 C8.31658,12.0976 7.68342,12.0976 7.29289,11.7071 L3.58578,8 L7.29289,4.29289 Z"/>
</svg>
