<svg xmlns="http://www.w3.org/2000/svg" width="16" height="16" viewBox="0 0 16 16">
  <path fill="#000000" d="M14,3 C14.5523,3 15,3.44772 15,4 L15,12 C15,12.5523 14.5523,13 14,13 C13.4477,13 13,12.5523 13,12 L13,4 C13,3.44772 13.4477,3 14,3 Z M8.70711,4.29289 L12.4142,8 L8.70711,11.7071 C8.31658,12.0976 7.68342,12.0976 7.2929,11.7071 C6.90237,11.3166 6.90237,10.6834 7.2929,10.2929 L8.58579,9 L2,9 C1.44771,9 1,8.55228 1,8 C1,7.44772 1.44771,7 2,7 L8.58579,7 L7.29289,5.70711 C6.90237,5.31658 6.90237,4.68342 7.29289,4.29289 C7.68342,3.90237 8.31658,3.90237 8.70711,4.29289 Z"/>
</svg>
