<svg xmlns="http://www.w3.org/2000/svg" width="16" height="16" viewBox="0 0 16 16">
  <path fill="#000000" d="M8,8 L10.7071,10.7071 C11.0976,11.0976 11.0976,11.7308 10.7071,12.1213 C10.3166,12.5118 9.68342,12.5118 9.29289,12.1213 L9,11.8284 L9.00009,15 C9.00009,15.5523 8.55238,16 8.00009,16 C7.44781,16 7.00009,15.5523 7.00009,15 L7,11.8284 L6.70711,12.1213 C6.31658,12.5118 5.68342,12.5118 5.29289,12.1213 C4.90237,11.7308 4.90237,11.0976 5.29289,10.7071 L8,8 Z M8,0 C8.55229,0 9,0.447715 9,1 L9,4.17157 L9.29289,3.87868 C9.68342,3.48816 10.3166,3.48816 10.7071,3.87868 C11.0976,4.2692 11.0976,4.90237 10.7071,5.29289 L8,8 L5.29289,5.29289 C4.90237,4.90237 4.90237,4.2692 5.29289,3.87868 C5.68342,3.48816 6.31658,3.48816 6.70711,3.87868 L7,4.17157 L7,1 C7,0.447715 7.44772,0 8,0 Z"/>
</svg>
