<svg xmlns="http://www.w3.org/2000/svg" width="16" height="16" viewBox="0 0 16 16">
  <path fill="#000000" fillRule="evenodd" d="M11.8759,8.99237 C11.4346,10.7215 9.86658,12 8,12 C6.13342,12 4.56545,10.7215 4.12406,8.99238 C4.08342,8.99741 4.04201,9 4,9 L1,9 C0.447715,9 0,8.55228 0,8 C0,7.44771 0.447715,7 1,7 L4,7 C4.04201,7 4.08342,7.00259 4.12406,7.00762 C4.56545,5.27853 6.13342,4 8,4 C9.86658,4 11.4346,5.27853 11.8759,7.00763 C11.9166,7.00259 11.958,7 12,7 L15,7 C15.5523,7 16,7.44772 16,8 C16,8.55228 15.5523,9 15,9 L12,9 C11.958,9 11.9166,8.9974 11.8759,8.99237 Z M8,10 C9.10457,10 10,9.10457 10,8 C10,6.89543 9.10457,6 8,6 C6.89543,6 6,6.89543 6,8 C6,9.10457 6.89543,10 8,10 Z"/>
</svg>
