<svg xmlns="http://www.w3.org/2000/svg" width="16" height="16" viewBox="0 0 16 16">
  <path fill="#000000" fillRule="evenodd" d="M4,10.4109 L1.50039,11.8555 C0.833719,12.2408 0,11.7597 0,10.9897 L0,2 C0,0.89543 0.895431,0 2,0 L10,0 C11.1046,0 12,0.895431 12,2 L12,4 L14,4 C15.1046,4 16,4.89543 16,6 L16,14.9897 C16,15.7597 15.1663,16.2408 14.4996,15.8555 L11.2891,14 L6,14 C4.89543,14 4,13.1046 4,12 L4,10.4109 Z M4,8.10089 L2,9.25677 L2,2 L10,2 L10,4 L6,4 C4.89543,4 4,4.89543 4,6 L4,8.10089 Z M6,12 L11.8254,12 L14,13.2568 L14,6 L6,6 L6,12 Z"/>
</svg>
