<svg xmlns="http://www.w3.org/2000/svg" width="16" height="16" viewBox="0 0 16 16">
  <path fill="#000000" d="M14,1 C15.1046,1 16,1.89543 16,3 L16,11 C16,12.1046 15.1046,13 14,13 L4.71094,13 L1.50039,14.8555 C0.833719,15.2408 0,14.7597 0,13.9897 L0,3 C0,1.89543 0.895431,1 2,1 L14,1 Z M14,3 L2,3 L2,12.2568 L4.17456,11 L14,11 L14,3 Z M5,6 C5.55228,6 6,6.44772 6,7 C6,7.55228 5.55228,8 5,8 C4.44772,8 4,7.55228 4,7 C4,6.44772 4.44772,6 5,6 Z M8,6 C8.55228,6 9,6.44772 9,7 C9,7.55228 8.55228,8 8,8 C7.44772,8 7,7.55228 7,7 C7,6.44772 7.44772,6 8,6 Z M11,6 C11.5523,6 12,6.44772 12,7 C12,7.55228 11.5523,8 11,8 C10.4477,8 10,7.55228 10,7 C10,6.44772 10.4477,6 11,6 Z"/>
</svg>
