<svg xmlns="http://www.w3.org/2000/svg" width="16" height="16" viewBox="0 0 16 16">
  <path fill="#000000" fillRule="evenodd" d="M14,1 C15.1046,1 16,1.89543 16,3 L16,11 C16,12.1046 15.1046,13 14,13 L4.71094,13 L1.50039,14.8555 C0.833719,15.2408 0,14.7597 0,13.9897 L0,3 C0,1.89543 0.895431,1 2,1 L14,1 Z M14,3 L2,3 L2,12.2568 L4.17456,11 L14,11 L14,3 Z M8.29286,4.29289 C8.68339,3.90237 9.31655,3.90237 9.70708,4.29289 L12.4142,7 L9.70708,9.7071 C9.31655,10.0976 8.68339,10.0976 8.29286,9.7071 C7.90234,9.3166 7.90234,8.68342 8.29286,8.29289 L8.58576,8 L5,8 C4.44772,8 4,7.55228 4,7 C4,6.44772 4.44772,6 5,6 L8.58576,6 L8.29286,5.70711 C7.90234,5.31658 7.90234,4.68342 8.29286,4.29289 Z"/>
</svg>
