<svg xmlns="http://www.w3.org/2000/svg" width="16" height="16" viewBox="0 0 16 16">
  <path fill="#000000" fillRule="evenodd" d="M3,1 C4.10457,1 5,1.89543 5,3 C5,3.68333538 4.65729704,4.28663574 4.13438762,4.6473967 L4,4.73244 L4,9 C4,10.24089 4.75341602,11.3058828 5.8277624,11.7623468 L6,11.8293 L6,10 L9,13 L6,16 L6,13.9 C3.78908,13.4511781 2.10791125,11.5435883 2.0049973,9.22557038 L2,9 L2,4.73244 C1.4022,4.38663 1,3.74028 1,3 C1,1.89543 1.89543,1 3,1 Z M10,0 L10,2.10002 C12.2822,2.56329 14,4.58104 14,7 L14,11.2676 C14.5978,11.6134 15,12.2597 15,13 C15,14.1046 14.1046,15 13,15 C11.8954,15 11,14.1046 11,13 C11,12.2597 11.4022,11.6134 12,11.2676 L12,7 C12,5.69378 11.1652,4.58254 10,4.17071 L10,6 L7,3 L10,0 Z"/>
</svg>
