<svg xmlns="http://www.w3.org/2000/svg" width="16" height="16" viewBox="0 0 16 16">
  <path fill="#000000" d="M7.0003,9.00003 L7.0003,13 C7.0003,13.5523 6.55259,14 6.0003,14 C5.44802,14 5.0003,13.5523 5.0003,13 L5.0003,12.4348 L2.70711,14.728 C2.31658,15.1185 1.68342,15.1185 1.29289,14.728 C0.902369,14.3375 0.902369,13.7043 1.29289,13.3138 L3.60663,11 L2.99999925,11 C2.44772,11 1.99999925,10.5523 1.99999925,10 C1.99999925,9.44774 2.44772,9.00003 2.99999925,9.00003 L7.0003,9.00003 Z M13.2929,1.27232 C13.6834,0.8818 14.3166,0.8818 14.7071,1.27232 C15.0976,1.66285 15.0976,2.29601 14.7071,2.68654 L12.3936,5.00003 L13,5.00003 C13.5523,5.00003 14,5.44774 14,6.00003 C14,6.55231 13.5523,7.00003 13,7.00003 L8.99994,7.00003 L8.99994,3.00003 C8.99994,2.44774 9.44766,2.00003 9.99994,2.00003 C10.5522,2.00003 10.9999,2.44774 10.9999,3.00003 L10.9999,3.56528 L13.2929,1.27232 Z"/>
</svg>
