<svg xmlns="http://www.w3.org/2000/svg" width="16" height="16" viewBox="0 0 16 16">
  <path fill="#000000" fillRule="evenodd" d="M13.5,2.13413878 C13.9783,2.41028878 14.1422,3.02187878 13.866,3.50016878 L12.6872,5.54193878 C12.6693,5.57941878 12.6488,5.61619878 12.6258,5.65205878 L12.6093,5.67680878 L9.62879,10.8392688 C9.8625,11.1665688 10,11.5673688 10,12.0001688 C10,13.1047688 9.10457,14.0001688 8,14.0001688 C6.89543,14.0001688 6,13.1047688 6,12.0001688 C6,10.9637688 6.78831,10.1114688 7.79803,10.0102688 L10.4011,5.50156878 C9.71258,5.20089878 8.97101,5.03106878 8.21451,5.00400878 C7.13787,4.96548878 6.07072,5.21756878 5.12511,5.73376878 C4.1795,6.24996878 3.39032,7.01124878 2.84044,7.93766878 C2.29055,8.86409878 2.00024,9.92148878 2,10.9987688 C1.99988,11.5510688 1.55206,11.9986688 0.999774,11.9985688 C0.44749,11.9984688 0,11.5506688 0,10.9983688 C0.000324182,9.56192878 0.387399,8.15206878 1.12058,6.91683878 C1.85376,5.68160878 2.906,4.66656878 4.16681,3.97829878 C5.42763,3.29002878 6.85049,2.95392878 8.28601,3.00528878 C9.36996,3.04405878 10.4309,3.30266878 11.4058,3.76135878 L12.134,2.50016878 C12.4101,2.02187878 13.0217,1.85799878 13.5,2.13413878 Z M13.4873,6.54043878 C13.9608,6.25621878 14.5751,6.40969878 14.8593,6.88323878 C15.6057,8.12678878 16,9.54983878 16,11.0001688 C16,11.5524688 15.5523,12.0001688 15,12.0001688 C14.4477,12.0001688 14,11.5524688 14,11.0001688 C14,9.91241878 13.7043,8.84512878 13.1445,7.91246878 C12.8603,7.43892878 13.0138,6.82464878 13.4873,6.54043878 Z"/>
</svg>
