<svg xmlns="http://www.w3.org/2000/svg" width="16" height="16" viewBox="0 0 16 16">
  <path fill="#000000" fillRule="evenodd" d="M3,1 L9.17157,1 C9.64307222,1 10.0973893,1.16648691 10.4559723,1.46691468 L10.5858,1.58579 L13.4142,4.41421 C13.7476222,4.74761444 13.9511481,5.18659519 13.9922598,5.65257532 L14,5.82843 L14,14 C14,14.51285 13.613973,14.9355092 13.1166239,14.9932725 L13,15 L3,15 C2.48716857,15 2.06449347,14.613973 2.0067278,14.1166239 L2,14 L2,2 C2,1.48716857 2.38604429,1.06449347 2.88337975,1.0067278 L3,1 L9.17157,1 L3,1 Z M9,3 L4,3 L4,13 L12,13 L12,6 L10,6 C9.48716857,6 9.06449347,5.61395571 9.0067278,5.11662025 L9,5 L9,3 Z M9,10 L10,10 C10.5523,10 11,10.4477 11,11 C11,11.51285 10.613973,11.9355092 10.1166239,11.9932725 L10,12 L9,12 C8.44772,12 8,11.5523 8,11 C8,10.48715 8.38604429,10.0644908 8.88337975,10.0067275 L9,10 Z M6.61290152,5.20970231 L6.70711,5.29289 L8.70711,7.29289 C9.06759,7.65337923 9.09531923,8.22060645 8.79029769,8.61290152 L8.70711,8.70711 L6.70711,10.7071 C6.31658,11.0976 5.68342,11.0976 5.29289,10.7071 C4.93241,10.3466385 4.90468077,9.77939633 5.20970231,9.3870988 L5.29289,9.29289 L6.58579,8 L5.29289,6.70711 C4.90237,6.31658 4.90237,5.68342 5.29289,5.29289 C5.65337923,4.93241 6.22060645,4.90468077 6.61290152,5.20970231 Z"/>
</svg>
