<svg xmlns="http://www.w3.org/2000/svg" width="16" height="16" viewBox="0 0 16 16">
  <path fill="#000000" fillRule="evenodd" d="M12,10 C12.5523,10 13,10.4477 13,11 L13,12 L14,12 C14.5523,12 15,12.4477 15,13 C15,13.5523 14.5523,14 14,14 L13,14 L13,15 C13,15.5523 12.5523,16 12,16 C11.4477,16 11,15.5523 11,15 L11,14 L10,14 C9.44772,14 9,13.5523 9,13 C9,12.4477 9.44772,12 10,12 L11,12 L11,11 C11,10.4477 11.4477,10 12,10 Z M3,1 L9.17157,1 C9.64307222,1 10.0973893,1.16648691 10.4559723,1.46691468 L10.5858,1.58579 L13.4142,4.41421 C13.7476222,4.74761444 13.9511481,5.18659519 13.9922598,5.65257532 L14,5.82843 L14,7 C14,7.55228 13.5523,8 13,8 C12.48715,8 12.0644908,7.61395571 12.0067275,7.11662025 L12,7 L12,6 L10,6 C9.48715929,6 9.06449214,5.61395571 9.00672766,5.11662025 L9,5 L9,3 L4,3 L4,13 L6,13 C6.55228,13 7,13.4477 7,14 C7,14.51285 6.61395571,14.9355092 6.11662025,14.9932725 L6,15 L3,15 C2.48716857,15 2.06449347,14.613973 2.0067278,14.1166239 L2,14 L2,2 C2,1.48716857 2.38604429,1.06449347 2.88337975,1.0067278 L3,1 L9.17157,1 L3,1 Z"/>
</svg>
