<svg xmlns="http://www.w3.org/2000/svg" width="16" height="16" viewBox="0 0 16 16">
  <path fill="#000000" fillRule="evenodd" d="M6,3 C6,2.44772 6.44772,2 7,2 L12.1716,2 C12.702,2 13.2107,2.21071 13.5858,2.58579 L15.4142,4.41421 C15.7893,4.78929 16,5.29799 16,5.82843 L16,13 C16,13.5523 15.5523,14 15,14 L7,14 C6.44772,14 6,13.5523 6,13 L4.5,13 C3.84689,13 3.29127,12.5826 3.08535,12 L1.5,12 C0.671573,12 0,11.3284 0,10.5 L0,5.5 C0,4.67157 0.671573,4 1.5,4 L3.08535,4 C3.29127,3.4174 3.84689,3 4.5,3 L6,3 Z M14,7 L14,12 L8,12 L8,4 L11,4 L11,7 L14,7 Z M3,6 L3,10 L2,10 L2,6 L3,6 Z M5,11 L6,11 L6,5 L5,5 L5,11 Z"/>
</svg>
