<svg xmlns="http://www.w3.org/2000/svg" width="16" height="16" viewBox="0 0 16 16">
  <path fill="#000000" fillRule="evenodd" d="M3,1 L9.17157,1 C9.64307222,1 10.0973893,1.16648691 10.4559723,1.46691468 L10.5858,1.58579 L13.4142,4.41421 C13.7476222,4.74761444 13.9511481,5.18659519 13.9922598,5.65257532 L14,5.82843 L14,14 C14,14.51285 13.613973,14.9355092 13.1166239,14.9932725 L13,15 L3,15 C2.48716857,15 2.06449347,14.613973 2.0067278,14.1166239 L2,14 L2,2 C2,1.48716857 2.38604429,1.06449347 2.88337975,1.0067278 L3,1 L9.17157,1 L3,1 Z M9,3 L4,3 L4,13 L12,13 L12,6 L10,6 C9.48716857,6 9.06449347,5.61395571 9.0067278,5.11662025 L9,5 L9,3 Z M9,9 L11,11 L11,12 L5,12 L5,11 L6,10 L7,11 L9,9 Z M7,7 C7.55228,7 8,7.44772 8,8 C8,8.55228 7.55228,9 7,9 C6.44772,9 6,8.55228 6,8 C6,7.44772 6.44772,7 7,7 Z"/>
</svg>
