<svg xmlns="http://www.w3.org/2000/svg" width="16" height="16" viewBox="0 0 16 16">
  <path fill="#000000" fillRule="evenodd" d="M12,13 L12,14.5 C12,15.3284 11.3284,16 10.5,16 L2.5,16 C1.67157,16 1,15.3284 1,14.5 L1,4.5 C1,3.67157 1.67157,3 2.5,3 L4,3 L4,1 C4,0.447715 4.44772,0 5,0 L11.1716,0 C11.702,0 12.2107,0.210714 12.5858,0.585786 L14.4142,2.41421 C14.7893,2.78929 15,3.29799 15,3.82843 L15,12 C15,12.5523 14.5523,13 14,13 L12,13 Z M13,11 L13,5 L11,5 C10.4477,5 10,4.55228 10,4 L10,2 L6,2 L6,11 L13,11 Z M10,13 L10,14 L3,14 L3,5 L4,5 L4,12 C4,12.5523 4.44772,13 5,13 L10,13 Z"/>
</svg>
