<svg xmlns="http://www.w3.org/2000/svg" width="16" height="16" viewBox="0 0 16 16">
  <path fill="#000000" d="M8,11 C8.51284071,11 8.93550786,11.386027 8.99327234,11.8833761 L9,12 L9,14 C9,14.5523 8.55229,15 8,15 C7.48716857,15 7.06449347,14.613973 7.0067278,14.1166239 L7,14 L7,12 C7,11.4477 7.44772,11 8,11 Z M3.71489,5.69905 C4.1054,6.08956 4.10542,6.7227 3.71494,7.11324 L2.82842,7.99986 L3.71503,8.88671 C4.10548,9.27727 4.10543,9.91037 3.71494,10.3009 C3.32438,10.6914 2.69115,10.6914 2.30062,10.3008 L-1.02140518e-14,7.99986 L2.30064,5.69907 C2.69116,5.30852 3.32436,5.30851 3.71489,5.69905 Z M13.6051759,5.61587574 L13.6994,5.69907 L16,7.99986 L13.6994,10.3008 C13.3088,10.6914 12.6756,10.6914 12.2851,10.3009 C11.9246385,9.94041077 11.8968254,9.37323467 12.2018183,8.98093173 L12.285,8.88672 L13.1716,7.99986 L12.2851,7.11324 C11.8946,6.7227 11.8946,6.08957 12.2851,5.69905 C12.6455615,5.33855154 13.2128207,5.31082941 13.6051759,5.61587574 Z M8,6 C8.51284071,6 8.93550786,6.38604429 8.99327234,6.88337975 L9,7 L9,9 C9,9.55228 8.55229,10 8,10 C7.48716857,10 7.06449347,9.61396434 7.0067278,9.1166221 L7,9 L7,7 C7,6.44772 7.44772,6 8,6 Z M8,1 C8.55228,1 9,1.44771 9,2 L9,4 C9,4.55229 8.55229,5 8,5 C7.44772,5 7,4.55229 7,4 L7,2 C7,1.44771 7.44772,1 8,1 Z"/>
</svg>
