<svg xmlns="http://www.w3.org/2000/svg" width="16" height="16" viewBox="0 0 16 16">
  <path fill="#000000" d="M7.11329,12.2849 L8.00014,13.1715 L8.88676,12.285 C9.2773,11.8945 9.91044,11.8946 10.3009,12.2851 C10.6915,12.6756 10.6915,13.3088 10.3009,13.6993 L8.00014,16 L5.69918,13.6993 C5.30859,13.3088 5.30857,12.6756 5.69913,12.285 C6.08963,11.8945 6.72273,11.8945 7.11329,12.2849 Z M3.71489,5.69905 C4.07536077,6.05952077 4.10310633,6.62672953 3.79811882,7.01902974 L3.71494,7.11324 L2.82842,7.99986 L3.71503,8.88671 C4.10548,9.27727 4.10543,9.91037 3.71494,10.3009 C3.35442308,10.6613615 2.78713408,10.6890893 2.39482967,10.3840048 L2.30062,10.3008 L-1.02140518e-14,7.99986 L2.30064,5.69907 C2.69116,5.30852 3.32436,5.30851 3.71489,5.69905 Z M13.6994,5.69907 L16,7.99986 L13.6994,10.3008 C13.3088,10.6914 12.6756,10.6914 12.2851,10.3009 C11.8946,9.91037 11.8945,9.27727 12.285,8.88671 L13.1716,7.99986 L12.2851,7.11324 C11.8946,6.7227 11.8946,6.08956 12.2851,5.69905 C12.6756,5.30851 13.3088,5.30852 13.6994,5.69907 Z M8,6 C8.55228,6 9,6.44772 9,7 C9.55229,7 10,7.44772 10,8 C10,8.55229 9.55229,9 9,9 C9,9.55228 8.55229,10 8,10 C7.44772,10 7,9.55229 7,9 C6.44772,9 6,8.55229 6,8 C6,7.44772 6.44772,7 7,7 C7,6.44772 7.44772,6 8,6 Z M8.00014,-1.02140518e-14 L10.3009,2.30064 C10.6915,2.69116 10.6915,3.32436 10.3009,3.71489 C9.91044,4.1054 9.2773,4.10542 8.88676,3.71494 L8.00014,2.82842 L7.11329,3.71503 C6.72273,4.10548 6.08963,4.10543 5.69913,3.71494 C5.30857,3.32438 5.30859,2.69115 5.69918,2.30062 L8.00014,-1.02140518e-14 Z"/>
</svg>
