<svg xmlns="http://www.w3.org/2000/svg" width="16" height="16" viewBox="0 0 16 16">
  <path fill="#000000" fillRule="evenodd" d="M7.01909811,12.2017379 L7.11331,12.2849 L8.00017,13.1715 L8.88679,12.285 C9.27732,11.8945 9.91046,11.8946 10.301,12.2851 C10.6614615,12.6455615 10.6891893,13.2128207 10.3841834,13.6050973 L10.301,13.6993 L8.00017,16 L5.6992,13.6993 C5.30862,13.3088 5.3086,12.6756 5.69915,12.285 C6.05961154,11.9245385 6.62679402,11.8968107 7.01909811,12.2017379 Z M9,7 C9.55228,7 10,7.44772 10,8 C10,8.51283143 9.61395571,8.93550653 9.11662025,8.9932722 L9,9 L7,9 C6.44772,9 6,8.55228 6,8 C6,7.48716857 6.38604429,7.06449347 6.88337975,7.0067278 L7,7 L9,7 Z M14,7 C14.5523,7 15,7.44772 15,8 C15,8.55228 14.5523,9 14,9 L12,9 C11.4477,9 11,8.55228 11,8 C11,7.44772 11.4477,7 12,7 L14,7 Z M2,7 L4,7 C4.55228,7 5,7.44772 5,8 C5,8.51283143 4.61395571,8.93550653 4.11662025,8.9932722 L4,9 L2,9 C1.44772,9 1,8.55228 1,8 C1,7.48716857 1.38604429,7.06449347 1.88337975,7.0067278 L2,7 L4,7 L2,7 Z M8.00017,-1.02140518e-14 L10.301,2.30064 C10.6915,2.69116 10.6915,3.32436 10.301,3.71489 C9.91046,4.1054 9.27732,4.10542 8.88679,3.71494 L8.00017,2.82842 L7.11331,3.71503 C6.72276,4.10548 6.08965,4.10543 5.69915,3.71494 C5.3086,3.32438 5.30862,2.69115 5.6992,2.30062 L8.00017,-1.02140518e-14 Z"/>
</svg>
