<svg xmlns="http://www.w3.org/2000/svg" width="16" height="16" viewBox="0 0 16 16">
  <path fill="#000000" d="M12,3 C12.5523,3 13,3.44772 13,4 L13,12 C13,12.5523 12.5523,13 12,13 C11.4477,13 11,12.5523 11,12 L11,9 L5,9 L5,12 C5,12.5523 4.55228,13 4,13 C3.44772,13 3,12.5523 3,12 L3,4 C3,3.44772 3.44772,3 4,3 C4.55228,3 5,3.44772 5,4 L5,7 L11,7 L11,4 C11,3.44772 11.4477,3 12,3 Z M1,5 C1.55228,5 2,5.44772 2,6 L2,10 C2,10.5523 1.55228,11 1,11 C0.447715,11 0,10.5523 0,10 L0,6 C0,5.44772 0.447715,5 1,5 Z M15,5 C15.5523,5 16,5.44772 16,6 L16,10 C16,10.5523 15.5523,11 15,11 C14.4477,11 14,10.5523 14,10 L14,6 C14,5.44772 14.4477,5 15,5 Z"/>
</svg>
