<svg xmlns="http://www.w3.org/2000/svg" width="16" height="16" viewBox="0 0 16 16">
  <path fill="#000000" fillRule="evenodd" d="M8,1 C11.8659932,1 15,4.13400675 15,8 C15,11.8659932 11.8659932,15 8,15 C4.13400675,15 1,11.8659932 1,8 C1,4.13400675 4.13400675,1 8,1 Z M8.96515973,9.00117633 L7.03484027,9.00117633 C7.12137413,10.2320385 7.36481835,11.3402224 7.71696972,12.1619089 C7.79348978,12.3404557 7.87172301,12.496879 7.94824865,12.6292915 L8,12.713 L8.05175135,12.6292915 C8.10276844,12.5410165 8.15454446,12.44207 8.20606586,12.3330113 L8.28303028,12.1619089 C8.63518165,11.3402224 8.87862587,10.2320385 8.96515973,9.00117633 Z M5.03044222,9.00099906 L3.10025909,9.0011864 C3.4031332,10.491395 4.36879751,11.740808 5.67610553,12.4282788 C5.33910207,11.4654592 5.10953483,10.2898775 5.03044222,9.00099906 Z M12.8997409,9.0011864 L10.9695578,9.00099906 C10.8904652,10.2898775 10.6608979,11.4654592 10.3237161,12.4277375 C11.6312025,11.740808 12.5968668,10.491395 12.8997409,9.0011864 Z M5.67628393,3.57226248 L5.59436492,3.61568174 C4.32832407,4.31182571 3.39636062,5.54039637 3.10005628,6.99981203 L5.03038108,6.99999768 C5.10941648,5.7107286 5.33901516,4.53478884 5.67628393,3.57226248 Z M8,3.286 L7.94824865,3.37070855 C7.87172301,3.50312104 7.79348978,3.65954431 7.71696972,3.83809113 C7.36472343,4.65999912 7.1212429,5.76855889 7.03477034,6.99981901 L8.96522966,6.99981901 C8.8787571,5.76855889 8.63527657,4.65999912 8.28303028,3.83809113 C8.20651022,3.65954431 8.12827699,3.50312104 8.05175135,3.37070855 L8,3.286 Z M10.3238945,3.57172124 L10.3806361,3.73984101 C10.686808,4.66995318 10.8951132,5.78461983 10.9696189,6.99999768 L12.8999437,6.99981203 C12.5972981,5.50916307 11.6314944,4.25934557 10.3238945,3.57172124 Z"/>
</svg>
