<svg xmlns="http://www.w3.org/2000/svg" width="16" height="16" viewBox="0 0 16 16">
  <path fill="#000000" d="M8,12 C9.10457,12 10,12.8954 10,14 C10,15.1046 9.10457,16 8,16 C6.89543,16 6,15.1046 6,14 C6,12.8954 6.89543,12 8,12 Z M8,6 C9.10457,6 10,6.89543 10,8 C10,9.10457 9.10457,10 8,10 C6.89543,10 6,9.10457 6,8 C6,6.89543 6.89543,6 8,6 Z M8,-8.74228041e-08 C9.10457,-8.74228041e-08 10,0.89543 10,1.99999991 C10,3.10457 9.10457,3.99999991 8,3.99999991 C6.89543,3.99999991 6,3.10457 6,1.99999991 C6,0.895431 6.89543,-8.74228041e-08 8,-8.74228041e-08 Z"/>
</svg>
