<svg xmlns="http://www.w3.org/2000/svg" width="16" height="16" viewBox="0 0 16 16">
  <path fill="#000000" fillRule="evenodd" d="M4,5 L4,7 L3,7 L3,10 C3,11.6569 4.34315,13 6,13 L12,13 C12.5523,13 13,13.4477 13,14 C13,14.5523 12.5523,15 12,15 L6,15 C3.23858,15 1,12.7614 1,10 L1,5 L4,5 Z M10,1 C12.7614,1 15,3.23858 15,6 L15,11 L12,11 L12,9 L13,9 L13,6 C13,4.34315 11.6569,3 10,3 L4,3 C3.44772,3 3,2.55228 3,2 C3,1.44772 3.44772,1 4,1 L10,1 Z M7.70711,5.29289 L9.70711,7.29289 C10.0976,7.68342 10.0976,8.31658 9.70711,8.70711 L7.70711,10.7071 C7.31658,11.0976 6.68342,11.0976 6.29289,10.7071 C5.90237,10.3166 5.90237,9.68342 6.29289,9.29289 L7.58579,8 L6.29289,6.70711 C5.90237,6.31658 5.90237,5.68342 6.29289,5.29289 C6.68342,4.90237 7.31658,4.90237 7.70711,5.29289 Z"/>
</svg>
