<svg xmlns="http://www.w3.org/2000/svg" width="16" height="16" viewBox="0 0 16 16">
  <path fill="#000000" fillRule="evenodd" d="M12.3911376,1.00166302 C12.8433376,1.00174802 13.2392376,1.30536402 13.3566376,1.74212402 L14.9691376,7.74209402 C15.1399376,8.37744402 14.6611376,9.00172402 14.0032376,9.00163402 L3.00103757,9.00016402 L3.00103757,10.003784 L13.0010376,10.003784 C13.5533376,10.003784 14.0010376,10.451484 14.0010376,11.003784 C14.0010376,11.556084 13.5533376,12.003784 13.0010376,12.003784 L4.00103757,12.003784 L4.00103757,13.003784 L12.0010376,13.003784 C12.5533376,13.003784 13.0010376,13.451484 13.0010376,14.003784 C13.0010376,14.556084 12.5533376,15.003784 12.0010376,15.003784 L4.00103757,15.003784 C2.89646757,15.003784 2.00103757,14.108384 2.00103757,13.003784 L2.00103757,11.736184 C1.40323757,11.390384 1.00103757,10.744084 1.00103757,10.003784 L1.00103757,8.04725402 C0.996438566,7.94705402 1.00702757,7.84391402 1.03481757,7.74048402 L2.64732757,1.74046402 C2.76474757,1.30356402 3.16084757,1 3.61324757,1 L12.3911376,1.00166302 Z M11.6241376,3.00151402 L12.6991376,7.00145402 L3.30473757,7.00020402 L4.37975757,3.00014402 L11.6241376,3.00151402 Z"/>
</svg>
