<svg xmlns="http://www.w3.org/2000/svg" width="16" height="16" viewBox="0 0 16 16">
  <path fill="#000000" fillRule="evenodd" d="M13.3566767,1.74212402 C13.2392767,1.30536402 12.8433767,1.00174802 12.3910767,1.00166302 L3.61324669,1 C3.16084669,1 2.76474669,1.30356402 2.64732669,1.74046402 L1.03481669,7.74048402 C1.00714669,7.84345402 0.996534687,7.94613402 1.00097669,8.04590402 L1.00097669,10.003784 C1.00097669,10.744084 1.40317669,11.390384 2.00097669,11.736184 L2.00097669,13.003784 C2.00097669,14.108384 2.89640669,15.003784 4.00097669,15.003784 L12.0009767,15.003784 C12.5532767,15.003784 13.0009767,14.556084 13.0009767,14.003784 C13.0009767,13.451484 12.5532767,13.003784 12.0009767,13.003784 L4.00097669,13.003784 L4.00097669,12.003784 L13.0009767,12.003784 C13.5532767,12.003784 14.0009767,11.556084 14.0009767,11.003784 C14.0009767,10.451484 13.5532767,10.003784 13.0009767,10.003784 L3.00097669,10.003784 L3.00097669,9.00016402 L14.0032767,9.00163402 C14.6611767,9.00172402 15.1398767,8.37744402 14.9691767,7.74209402 L13.3566767,1.74212402 Z M10.7081767,3.29667402 C11.0986767,3.68720402 11.0986767,4.32036402 10.7081767,4.71089402 L7.70814669,7.71089402 C7.31761669,8.10141402 6.68445669,8.10141402 6.29392669,7.71089402 L5.29392669,6.71089402 C4.90340669,6.32036402 4.90340669,5.68720402 5.29392669,5.29667402 C5.68445669,4.90615402 6.31761669,4.90615402 6.70814669,5.29667402 L7.00103669,5.58957402 L9.29392669,3.29667402 C9.68445669,2.90615402 10.3175767,2.90615402 10.7081767,3.29667402 Z"/>
</svg>
