<svg xmlns="http://www.w3.org/2000/svg" width="16" height="16" viewBox="0 0 16 16">
  <path fill="#000000" d="M12,13.004215 C12.5523,13.004215 13,13.451915 13,14.004215 C13,14.556515 12.5523,15.004215 12,15.004215 L4,15.004215 C3.44772,15.004215 3,14.556515 3,14.004215 C3,13.451915 3.44772,13.004215 4,13.004215 L12,13.004215 Z M8,0.59 L11.7071,4.297105 C12.0976,4.687635 12.0976,5.320795 11.7071,5.711315 C11.3166,6.101845 10.6834,6.101845 10.2929,5.711315 L9,4.418425 L9,11.004215 C9,11.556515 8.55229,12.004215 8,12.004215 C7.44772,12.004215 7,11.556515 7,11.004215 L7,4.418425 L5.70711,5.711315 C5.31658,6.101845 4.68342,6.101845 4.29289,5.711315 C3.90237,5.320795 3.90237,4.687635 4.29289,4.297105 L8,0.59 Z"/>
</svg>
