<svg xmlns="http://www.w3.org/2000/svg" width="16" height="16" viewBox="0 0 16 16">
  <path fill="#000000" d="M14.004207,3 C14.556507,3 15.004207,3.44772 15.004207,4 L15.004207,12 C15.004207,12.5523 14.556507,13 14.004207,13 C13.451907,13 13.004207,12.5523 13.004207,12 L13.004207,4 C13.004207,3.44772 13.451907,3 14.004207,3 Z M4.297107,4.29289 C4.687627,3.90237 5.320797,3.90237 5.711317,4.29289 C6.101847,4.68342 6.101847,5.31658 5.711317,5.70711 L4.418427,7 L11.004207,7 C11.556507,7 12.004207,7.44772 12.004207,8 C12.004207,8.55229 11.556507,9 11.004207,9 L4.418427,9 L5.711317,10.2929 C6.101847,10.6834 6.101847,11.3166 5.711317,11.7071 C5.320797,12.0976 4.687627,12.0976 4.297107,11.7071 L0.59,8 L4.297107,4.29289 Z"/>
</svg>
