<svg xmlns="http://www.w3.org/2000/svg" width="16" height="16" viewBox="0 0 16 16">
  <path fill="#000000" d="M8,4 C8.55229,4 9,4.44772 9,5 L9,11.5858 L10.2929,10.2929 C10.6834,9.90237 11.3166,9.90237 11.7071,10.2929 C12.0976,10.6834 12.0976,11.3166 11.7071,11.7071 L8,15.4142 L4.29289,11.7071 C3.90237,11.3166 3.90237,10.6834 4.29289,10.2929 C4.68342,9.90237 5.31658,9.90237 5.70711,10.2929 L7,11.5858 L7,5 C7,4.44771 7.44772,4 8,4 Z M12,1 C12.5523,1 13,1.44772 13,2 C13,2.55228 12.5523,3 12,3 L4,3 C3.44772,3 3,2.55228 3,2 C3,1.44772 3.44772,1 4,1 L12,1 Z"/>
</svg>
