<svg xmlns="http://www.w3.org/2000/svg" width="16" height="16" viewBox="0 0 16 16">
  <path fill="#000000" fillRule="evenodd" d="M4,2 C2.89543,2 2,2.89543 2,4 L2,12 C2,13.1046 2.89543,14 4,14 L12,14 C13.1046,14 14,13.1046 14,12 L14,4 C14,2.89543 13.1046,2 12,2 L4,2 Z M9,5 C9,4.44772 8.55229,4 8,4 C7.44771,4 7,4.44772 7,5 L7,7 L5,7 C4.44772,7 4,7.44771 4,8 C4,8.55228 4.44771,9 5,9 L7,9 L7,11 C7,11.5523 7.44771,12 8,12 C8.55229,12 9,11.5523 9,11 L9,9 L11,9 C11.5523,9 12,8.55228 12,8 C12,7.44772 11.5523,7 11,7 L9,7 L9,5 Z"/>
</svg>
