<svg xmlns="http://www.w3.org/2000/svg" width="16" height="16" viewBox="0 0 16 16">
  <path fill="#000000" fillRule="evenodd" d="M12,2 C13.1046,2 14,2.89543 14,4 L14,12 C14,13.1046 13.1046,14 12,14 L4,14 C2.89543,14 2,13.1046 2,12 L2,4 C2,2.89543 2.89543,2 4,2 L12,2 Z M12,4 L4,4 L4,12 L12,12 L12,4 Z M6,7 L10,7 C10.5523,7 11,7.44772 11,8 C11,8.51284071 10.613973,8.93550786 10.1166239,8.99327234 L10,9 L6,9 C5.44771,9 5,8.55228 5,8 C5,7.48716857 5.38604429,7.06449347 5.88337975,7.0067278 L6,7 L10,7 L6,7 Z"/>
</svg>
