<svg xmlns="http://www.w3.org/2000/svg" width="16" height="16" viewBox="0 0 16 16">
  <path fill="#000000" fillRule="evenodd" d="M8,8.17157 L13,3.17157 L13,3 L3,3 L3,3.17157 L8,8.17157 Z M7.49796,15.8664 L9.49796,14.718 C9.80851,14.5396 10,14.2089 10,13.8508 L10,9 L14.7071,4.29289 C14.8946,4.10536 15,3.851 15,3.58579 L15,2 C15,1.44772 14.5523,1 14,1 L2,1 C1.44772,1 1,1.44772 1,2 L1,3.58579 C1,3.851 1.10536,4.10536 1.29289,4.29289 L6,9 L6,14.9992 C6,15.768 6.8313,16.2492 7.49796,15.8664 Z"/>
</svg>
