<svg xmlns="http://www.w3.org/2000/svg" width="16" height="16" viewBox="0 0 16 16">
  <path fill="#000000" fillRule="evenodd" d="M10.4537,4.39655 C10.0289,3.44994 9.19121,2.45576 7.89585,1.39162 C7.34716,0.940867 6.71634,0.477561 6,0 C6,0.801939 5.87297,1.52829 5.66418,2.19966 C5.24533,3.54648 4.49746,4.67202 3.7861,5.7426 C2.86226,7.13298 2,8.43066 2,10 C2,13.3137 4.68629,16 8,16 C11.3137,16 14,13.3137 14,10 C14,9.40651 13.9068,8.82466 13.7406,8.25885 C13.5274,7.53276 13.1938,6.83308 12.7824,6.16912 C12.6776,6.00004 12.5678,5.83328 12.4537,5.66899 C12.4537,6.51254 12.0669,7.31274 11.5021,7.99049 C11.2941,8.24011 11.062,8.47313 10.8161,8.68558 C10.4344,9.01549 10.0196,9.29581 9.61084,9.51176 C9.55155,9.54309 9.49239,9.57306 9.43348,9.60162 C9.00112,9.81128 8.80213,9.36614 9.14775,9.03231 C9.14994,9.03019 9.15214,9.02807 9.15433,9.02595 C9.5392,8.65348 9.85958,8.27935 10.1117,7.90168 C10.5967,7.17506 10.8291,6.43532 10.7817,5.66899 C10.7561,5.25338 10.6481,4.82995 10.4537,4.39655 Z M11.9879,10.3139 C11.4501,10.7593 10.8719,11.1268 10.3061,11.4012 C9.90804,11.5942 9.33815,11.7455 8.69874,11.5947 C8.02219,11.4351 7.47995,10.9809 7.19429,10.383 C6.64749,9.23862 7.1835,8.14896 7.75828,7.59378 C8.85297,6.53642 8.8677,5.92167 8.7185,5.4485 C8.57144,4.98215 8.16745,4.34514 7.30992,3.53684 C6.80084,4.82135 6.09931,5.87606 5.52216,6.74378 C5.49852,6.77932 5.47509,6.81454 5.4519,6.84945 C4.45454,8.35046 4,9.13938 4,10 C4,12.2091 5.79086,14 8,14 C10.1035,14 11.8278,12.3763 11.9879,10.3139 Z"/>
</svg>
