<svg xmlns="http://www.w3.org/2000/svg" width="16" height="16" viewBox="0 0 16 16">
  <path fill="#000000" fillRule="evenodd" d="M1,2.40872 L1.50222,2.1325 C1.51348,2.12603 1.52487,2.11977 1.5364,2.11372 C3.04003,1.29045 4.32577,1.04503 5.50683,1.16103 C6.62921,1.27126 7.57799,1.70634 8.36632,2.06785 L8.41665,2.09092 C9.25484,2.47509 9.92593,2.77362 10.6887,2.84853 C11.4119,2.91956 12.3023,2.79244 13.5181,2.12378 L15,1.30873 L15,10.5913 L14.4819,10.8762 C12.9704,11.7075 11.679,11.9554 10.4932,11.839 C9.37079,11.7287 8.42202,11.2936 7.63369,10.9321 L7.58334,10.9091 C6.74516,10.5249 6.07407,10.2264 5.31135,10.1515 C4.69497,10.0909 3.95715,10.1743 3,10.6142 L3,14 C3,14.5523 2.55228,15 2,15 C1.44772,15 1,14.5523 1,14 L1,2.40872 Z M13,9.3858 L13,4.53444 C12.0971,4.8347 11.2724,4.91548 10.4932,4.83895 C9.37079,4.72872 8.42201,4.29364 7.63369,3.93213 L7.58335,3.90905 C6.74516,3.52489 6.07407,3.22636 5.31135,3.15145 C4.69497,3.09091 3.95715,3.1743 3,3.61418 L3,8.46554 C3.90285,8.16528 4.72762,8.0845 5.50683,8.16103 C6.62921,8.27126 7.57799,8.70634 8.36632,9.06785 L8.41665,9.09092 C9.25484,9.47509 9.92593,9.77362 10.6887,9.84853 C11.305,9.90907 12.0429,9.82568 13,9.3858 Z"/>
</svg>
