<svg xmlns="http://www.w3.org/2000/svg" width="16" height="16" viewBox="0 0 16 16">
  <path fill="#000000" fillRule="evenodd" d="M12.7407,5.0144 C12.397,4.40867 11.7462,4 11,4 L9,4 L7.29289,2.29289 C7.10536,2.10536 6.851,2 6.58579,2 L3,2 C1.89543,2 1,2.89543 1,4 L1,12 C1,13.1046 1.89543,14 3,14 L12,14 C12.0024,14 12.0047,14 12.0071,14 L12.6516,14 C13.5554,14 14.3469,13.3939 14.5825,12.5213 L15.9286,7.53574 C16.2718,6.26461 15.3144,5.0144 13.9977,5.0144 L12.7407,5.0144 Z M4.34832,7.0144 L3.00222,12 L12.6516,12 L13.9977,7.0144 L4.34832,7.0144 Z"/>
</svg>
