<svg xmlns="http://www.w3.org/2000/svg" width="16" height="16" viewBox="0 0 16 16">
  <path fill="#000000" fillRule="evenodd" d="M1.08296,6 C1.05626,6.15914 1.03582,6.32041 1.02192,6.48354 C0.402244,6.93853 0,7.67229 0,8.5 C0,9.31791 0.392777,10.0441 1,10.5002 L1,12 C1,13.6569 2.34315,15 4,15 L12,15 C13.6569,15 15,13.6569 15,12 L15,10.5002 C15.6072,10.0441 16,9.31791 16,8.5 C16,7.67229 15.5978,6.93853 14.9781,6.48354 C14.9642,6.32041 14.9437,6.15914 14.917,6 C14.441,3.16229 11.973,1 9,1 L7,1 C4.027,1 1.55904,3.16229 1.08296,6 Z M12.874,6 L3.12602,6 C3.57006,4.27477 5.13616,3 7,3 L9,3 C10.8638,3 12.4299,4.27477 12.874,6 Z M2,8.5 C2,8.22386 2.22386,8 2.5,8 L13.5,8 C13.7761,8 14,8.22386 14,8.5 C14,8.77614 13.7761,9 13.5,9 L2.5,9 C2.22386,9 2,8.77614 2,8.5 Z M3,11 L3,12 C3,12.5523 3.44772,13 4,13 L12,13 C12.5523,13 13,12.5523 13,12 L13,11 L11,11 L10,12 L9,11 L3,11 Z"/>
</svg>
