<svg xmlns="http://www.w3.org/2000/svg" width="16" height="16" viewBox="0 0 16 16">
  <path fill="#000000" fillRule="evenodd" d="M7.24689,2.24696 C5.58979,0.593179 2.90579,0.594203 1.24997,2.25003 C-0.406886,3.90688 -0.406891,6.59317 1.24996,8.25002 L7.99996,15.0001 L14.75,8.25003 C16.4068,6.59317 16.4068,3.90688 14.75,2.25003 C13.0942,0.594273 10.4104,0.593172 8.75327,2.24673 L7.99996,3.00003 L7.24689,2.24696 Z M7.99996,12.1716 L13.3358,6.83581 C14.2116,5.96001 14.2116,4.54005 13.3358,3.66424 C12.46,2.78843 11.04,2.78843 10.1642,3.66424 L7.99996,5.82846 L5.83575,3.66425 C4.95995,2.78844 3.53999,2.78844 2.66418,3.66425 C1.78837,4.54005 1.78837,5.96001 2.66417,6.83581 L7.99996,12.1716 Z"/>
</svg>
