<svg xmlns="http://www.w3.org/2000/svg" fill="#292961" width="16" height="16" viewBox="0 0 16 16">
  <path  fillRule="evenodd" d="M15.4847,5.328 L7.99238,1 L0.499976,5.328 C0.0217345,5.60426 -0.141992,6.21588 0.134253,6.69411 C0.317938,7.0121 0.649908,7.19109 0.992346,7.19408 L1.99235,7.19408 L1.99235,14.0298 L13.9923,14.0298 L13.9923,7.19408 L14.9921,7.19408 C15.3346,7.19118 15.6667,7.01218 15.8505,6.69411 C16.1267,6.21588 15.963,5.60426 15.4847,5.328 Z M11.9923,5.62031 L7.99238,3.30971 L3.99235,5.62034 L3.99235,12.0298 L6.99235,12.0298 L6.99235,9.02985 L8.99235,9.02985 L8.99235,12.0298 L11.9923,12.0298 L11.9923,5.62031 Z"/>
</svg>
