<svg xmlns="http://www.w3.org/2000/svg" width="16" height="16" viewBox="0 0 16 16">
  <path fill="#000000" fillRule="evenodd" d="M9,4.73244 C9.5978,4.38663 10,3.74028 10,3 C10,1.89543 9.10457,1 8,1 C6.89543,1 6,1.89543 6,3 C6,3.74028 6.4022,4.38663 7,4.73244 L7,11 C7,12.1046 6.10457,13 5,13 C3.89543,13 3,12.1046 3,11 L6,8 L1,8 L1,11 C1,13.2091 2.79086,15 5,15 C6.19469,15 7.26706,14.4762 8,13.6458 C8.73295,14.4762 9.80531,15 11,15 C13.2091,15 15,13.2091 15,11 L15,8 L10,8 L13,11 C13,12.1046 12.1046,13 11,13 C9.89543,13 9,12.1046 9,11 L9,4.73244 Z"/>
</svg>
