<svg xmlns="http://www.w3.org/2000/svg" width="16" height="16" viewBox="0 0 16 16">
  <path fill="#000000" d="M8,0 C12.4183,0 16,3.58173 16,8 C16,12.4183 12.4183,16 8,16 C3.58167,16 0,12.4183 0,8 C0,3.58173 3.58167,0 8,0 Z M8,2 C4.68628,2 2,4.68628 2,8 C2,11.3137 4.68628,14 8,14 C11.3137,14 14,11.3137 14,8 C14,4.68628 11.3137,2 8,2 Z M8,7 C8.51280357,7 8.93550255,7.38604429 8.99327177,7.88337975 L9,8 L9,11 C9,11.5523 8.55225,12 8,12 C7.48719643,12 7.06449745,11.613973 7.00672823,11.1166239 L7,11 L7,8 C7,7.44772 7.44775,7 8,7 Z M8,4 C8.55225,4 9,4.44772 9,5 C9,5.55228 8.55225,6 8,6 C7.44775,6 7,5.55228 7,5 C7,4.44772 7.44775,4 8,4 Z"/>
</svg>
