<svg xmlns="http://www.w3.org/2000/svg" width="16" height="16" viewBox="0 0 16 16">
  <path fill="#000000" fillRule="evenodd" d="M3,1 C1.89543,1 1,1.89543 1,3 L1,13 C1,14.1046 1.89543,15 3,15 L9,15 C9.81319,15 10.457,14.4688 10.8452,13.7866 C10.9355,13.628 11.8046,12.1241 12.7676,10.4578 C13.4561,9.26633 14.1926,7.99187 14.7267,7.06674 C15.279,6.11016 14.9513,4.88698 13.9947,4.33469 L10.9559,2.58023 C10.763,1.6772 9.96059,1 9,1 L3,1 Z M12.9947,6.06674 L11,9.52164 L11,4.91511 L12.9947,6.06674 Z M8.70711,7.70711 C9.09763,7.31658 9.09763,6.68342 8.70711,6.29289 C8.31658,5.90237 7.68342,5.90237 7.29289,6.29289 L5,8.58579 L4.70711,8.29289 C4.31658,7.90237 3.68342,7.90237 3.29289,8.29289 C2.90237,8.68342 2.90237,9.31658 3.29289,9.70711 L4.29289,10.7071 C4.68342,11.0976 5.31658,11.0976 5.70711,10.7071 L8.70711,7.70711 Z"/>
</svg>
