<svg xmlns="http://www.w3.org/2000/svg" width="16" height="16" viewBox="0 0 16 16">
  <path fill="#000000" fillRule="evenodd" d="M4,8 C6.20914,8 8,9.79086 8,12 C8,14.2091 6.20914,16 4,16 C1.79086,16 0,14.2091 0,12 C0,9.79086 1.79086,8 4,8 Z M9,1 C9.90408471,1 10.6680515,1.59987266 10.9156236,2.42330789 L10.9559,2.58023 L13.9947,4.33469 C14.9057476,4.86068048 15.2463644,5.99518796 14.7996407,6.92837334 L14.7267,7.06674 L10.8662,13.7534 C10.5901,14.2317 9.97847,14.3955 9.50018,14.1194 C9.20619778,13.9497111 9.03099481,13.6532074 9.003753,13.3388206 L9,13.1875 L9,3 L3,3 L3,6 C3,6.55228 2.55228,7 2,7 C1.48716857,7 1.06449347,6.61395571 1.0067278,6.11662025 L1,6 L1,3 C1,1.94563773 1.81587733,1.08183483 2.85073759,1.00548573 L3,1 L9,1 Z M3.482,10.06774 L5.9323,12.51802 C5.9764,12.3528 6,12.17915 6,12 C6,10.89543 5.1046,10 4,10 C3.8208,10 3.6472,10.02355 3.482,10.06774 Z M2,12 C2,13.10457 2.8954,14 4,14 C4.1792,14 4.3528,13.97644 4.5181,13.93225 L2.0677,11.48193 C2.0236,11.64717 2,11.82083 2,12 Z M11,4.91511 L11,9.52164 L12.9947,6.06674 L11,4.91511 Z"/>
</svg>
