<svg xmlns="http://www.w3.org/2000/svg" width="16" height="16" viewBox="0 0 16 16">
  <path fill="#000000" fillRule="evenodd" d="M11,10 C11.51285,10 11.9355092,10.386027 11.9932725,10.8833761 L12,11 L12,12 L13,12 C13.5523,12 14,12.4477 14,13 C14,13.51285 13.613973,13.9355092 13.1166239,13.9932725 L13,14 L12,14 L12,15 C12,15.5523 11.5523,16 11,16 C10.48715,16 10.0644908,15.613973 10.0067275,15.1166239 L10,15 L10,14 L9,14 C8.44772,14 8,13.5523 8,13 C8,12.48715 8.38604429,12.0644908 8.88337975,12.0067275 L9,12 L10,12 L10,11 C10,10.4477 10.4477,10 11,10 Z M9,1 C9.9606,1 10.763,1.67722 10.9559,2.58026 L13.9947,4.33474 C14.9513,4.88702 15.2791,6.11021 14.7268,7.06679 L13.5936,9.03175 C13.3176,9.51034 12.7058,9.67443 12.2273,9.3982 C11.7492,9.12215 11.5852,8.51085 11.861,8.03259 L12.9947,6.06679 L11,4.91513 L11,8 C11,8.55228 10.5523,9 10,9 C9.44772,9 9,8.55228 9,8 L9,3 L3,3 L3,13 L5,13 C5.55228,13 6,13.4477 6,14 C6,14.5523 5.55228,15 5,15 L3,15 C1.89543,15 1,14.1046 1,13 L1,3 C1,1.89543 1.89543,1 3,1 L9,1 Z"/>
</svg>
