<svg xmlns="http://www.w3.org/2000/svg" width="16" height="16" viewBox="0 0 16 16">
  <path fill="#000000" d="M10,1 C12.7614,1 15,3.23858 15,6 C15,8.76142 12.7614,11 10,11 L6,11 L6,13 L4,13 L4,15 L1,15 L1,12 L5.29737,7.70263 C5.10493,7.1712 5,6.59785 5,6 C5,3.23858 7.23858,1 10,1 Z M10,3 C8.34315,3 7,4.34315 7,6 C7,7.65685 8.34315,9 10,9 C11.6569,9 13,7.65685 13,6 C13,4.34315 11.6569,3 10,3 Z M10.7,4.3 C11.2522,4.3 11.7,4.74772 11.7,5.3 C11.7,5.85229 11.2522,6.3 10.7,6.3 C10.1477,6.3 9.69995,5.85229 9.69995,5.3 C9.69995,4.74772 10.1477,4.3 10.7,4.3 Z"/>
</svg>
