<svg xmlns="http://www.w3.org/2000/svg" width="16" height="16" viewBox="0 0 16 16">
  <path fill="#000000" fillRule="evenodd" d="M9.82812488,3 L12.9996949,3 L12.9996949,6.17157 L6.17157488,12.9997 L3.00000488,9.82812 L9.82812488,3 Z M8.41391488,1.58579 C8.78898488,1.21071 9.29769488,1 9.82812488,1 L14.9996949,1 L14.9996949,6.17157 C14.9996949,6.70201 14.7889949,7.21071 14.4138949,7.58579 L7.58578488,14.4139 C6.80473488,15.195 5.53840488,15.195 4.75735488,14.4139 L1.58578488,11.2423 C0.804738875,10.4613 0.804737875,9.19496 1.58578488,8.41391 L8.41391488,1.58579 Z M10.9996949,6 C11.5519949,6 11.9996949,5.55228 11.9996949,5 C11.9996949,4.44772 11.5519949,4 10.9996949,4 C10.4473949,4 9.99969488,4.44772 9.99969488,5 C9.99969488,5.55228 10.4473949,6 10.9996949,6 Z"/>
</svg>
