<svg xmlns="http://www.w3.org/2000/svg" width="16" height="16" viewBox="0 0 16 16">
  <path fill="#000000" fillRule="evenodd" d="M14,-3.8191672e-14 L14,3 L16,3 L16,8.17157 C16,8.64307222 15.833521,9.09739716 15.5330809,9.45596791 L15.4142,9.58579 L9.60157,15.3984 C8.86163737,16.1383895 7.6861536,16.1773363 6.90036498,15.5152404 L6.77315,15.3984 L1.10166,9.72673 C0.361716,8.98679737 0.322769784,7.8113136 0.984826453,7.02552498 L1.10166,6.89831 L7.41417,0.585786 C7.74757444,0.252388667 8.18656309,0.0488544444 8.65253796,0.00774063374 L8.82839,-3.8191672e-14 L14,-3.8191672e-14 Z M14,8.17157 L14,6 L7.10166,12.8983 L7.10166,12.8983 L8.18736,13.9842 L14,8.17157 Z M12,2 L8.82839,2 L2.51587,8.31252 L5.68744,11.4841 L12,5.17157 L12,2 Z M10,3 C10.5523,3 11,3.44772 11,4 C11,4.55228 10.5523,5 10,5 C9.44773,5 9.00002,4.55228 9.00002,4 C9.00002,3.44772 9.44773,3 10,3 Z"/>
</svg>
