<svg xmlns="http://www.w3.org/2000/svg" width="16" height="16" viewBox="0 0 16 16">
  <path fill="#000000" d="M8,1 C8.55228,1 9,1.44769 9,2 C9,2.05821 9.04103,2.1082 9.09783,2.12092 C9.23039,2.15062 9.36095,2.18556 9.4893,2.22556 C9.54467,2.24281 9.60497,2.22009 9.63397,2.16986 C9.91013,1.69159 10.5217,1.52771 11,1.80383 C11.4783,2.07996 11.6422,2.69159 11.366,3.16986 C11.3366,3.22077 11.3472,3.2852 11.3904,3.32507 C11.489,3.41606 11.5839,3.51096 11.6749,3.60956 C11.7148,3.65275 11.7792,3.66335 11.8301,3.63397 C12.3084,3.35785 12.92,3.52173 13.1962,4 C13.4723,4.47827 13.3084,5.0899 12.8301,5.36603 C12.7799,5.39501 12.7572,5.4553 12.7744,5.51066 C12.8144,5.63902 12.8494,5.76962 12.8791,5.9022 C12.8918,5.95898 12.9418,6 13,6 C13.5523,6 14,6.44769 14,7 C14,7.55231 13.5523,8 13,8 C12.9418,8 12.8918,8.04102 12.8791,8.0978 C12.8712,8.13326 12.8629,8.16857 12.8542,8.20374 C12.8303,8.30006 12.8037,8.3953 12.7744,8.48934 C12.7572,8.5447 12.7799,8.60499 12.8301,8.63397 C13.3084,8.9101 13.4723,9.52173 13.1962,10 C12.92,10.4783 12.3084,10.6422 11.8301,10.366 L11.7795,10.3368 C11.7581,10.3244 11.7309,10.3289 11.7144,10.3472 C11.6991,10.3641 11.6964,10.3888 11.7078,10.4085 L14.07,14.5 L12.271,14.384 L11.4719,16 L9.11587,11.9192 C9.10244,11.8959 9.0755,11.8841 9.04923,11.8897 C9.02063,11.8958 9,11.921 9,11.9502 L9,12 C9,12.5523 8.55228,13 8,13 C7.44772,13 7,12.5523 7,12 L7,11.9502 C7,11.921 6.97937,11.8958 6.95077,11.8897 C6.9245,11.8841 6.89756,11.8959 6.88413,11.9192 L4.52807,16 L3.72903,14.384 L1.92999,14.5 L4.29222,10.4085 C4.30358,10.3888 4.30085,10.3641 4.28564,10.3472 C4.26908,10.3289 4.24195,10.3244 4.22053,10.3368 L4.16989,10.366 C3.69159,10.6422 3.08002,10.4783 2.80386,10 C2.52771,9.52173 2.69159,8.9101 3.16989,8.63397 C3.2201,8.60499 3.24282,8.54472 3.22557,8.48937 C3.18557,8.361 3.1506,8.23039 3.12089,8.0978 C3.10817,8.04102 3.05819,8 3,8 C2.44772,8 2,7.55231 2,7 C2,6.44769 2.44772,6 3,6 C3.05819,6 3.10817,5.95898 3.12089,5.9022 C3.1506,5.76961 3.18557,5.639 3.22557,5.51063 C3.24282,5.45528 3.2201,5.39501 3.16989,5.36603 C2.69159,5.0899 2.52771,4.47827 2.80386,4 C3.08002,3.52173 3.69159,3.35785 4.16989,3.63397 C4.22078,3.66335 4.28519,3.65276 4.32505,3.60958 C4.41608,3.51095 4.51103,3.41599 4.60965,3.32496 C4.65282,3.28512 4.66341,3.22073 4.63403,3.16986 C4.35791,2.69159 4.52176,2.08002 5.00006,1.80383 C5.47836,1.52771 6.08994,1.69159 6.36609,2.16986 C6.39507,2.22009 6.45536,2.24282 6.51072,2.22558 C6.63906,2.1856 6.76963,2.15064 6.90217,2.12093 C6.95897,2.1082 7,2.05821 7,2 C7,1.44769 7.44772,1 8,1 Z M8,4 C6.34314,4 5,5.34314 5,7 C5,8.65686 6.34314,10 8,10 C9.65686,10 11,8.65686 11,7 C11,5.34314 9.65686,4 8,4 Z M8,6 C8.55229,6 9,6.44772 9,7 C9,7.55228 8.55229,8 8,8 C7.44772,8 7,7.55228 7,7 C7,6.44772 7.44772,6 8,6 Z"/>
</svg>
