<svg xmlns="http://www.w3.org/2000/svg" width="16" height="16" viewBox="0 0 16 16">
  <path fill="#000000" d="M5.17163025,6.5858 C5.56216,6.97632 5.56215,7.60948 5.17163025,8.00001 L3.75742,9.41422 C2.97637,10.1953 2.97637,11.4616 3.75742,12.2426 C4.53847,13.0237 5.8048,13.0237 6.58584,12.2426 L8.00006,10.8284 C8.39058,10.4379 9.02375,10.4379 9.41427,10.8284 C9.8048,11.219 9.8048,11.8521 9.41427,12.2426 L8.00006,13.6569 C6.43796,15.219 3.9053,15.219 2.3432,13.6569 C0.781107,12.0948 0.781107,9.56211 2.3432,8.00001 L3.75742,6.5858 C4.14794,6.19527 4.78111,6.19527 5.17163025,6.5858 Z M10.5355,5.4645 C10.926,5.85502 10.926,6.48819 10.5355,6.87871 L6.87863,10.5356 C6.4881,10.9261 5.85494,10.9261 5.46441,10.5356 C5.07389,10.145 5.07389,9.51188 5.46441,9.12135 L9.12127,5.4645 C9.51179,5.07397 10.145,5.07397 10.5355,5.4645 Z M13.6568,2.34314 C15.2189,3.90524 15.2189,6.4379 13.6568,8 L12.2426,9.41421 C11.8521,9.80473 11.2189,9.80473 10.8284,9.41421 C10.4379,9.02369 10.4379,8.39052 10.8284,8 L12.2426,6.58578 C13.0236,5.80473 13.0236,4.5384 12.2426,3.75736 C11.4615,2.97631 10.1952,2.97631 9.41416,3.75736 L7.99995,5.1715695 C7.60942,5.56209 6.97626,5.56209 6.58573,5.1715695 C6.19521,4.78105 6.19521,4.14788 6.58573,3.75736 L7.99995,2.34314 C9.56205,0.781046 12.0947,0.781046 13.6568,2.34314 Z"/>
</svg>
