<svg xmlns="http://www.w3.org/2000/svg" width="16" height="16" viewBox="0 0 16 16">
  <path fill="#cbd5e0" d="M2,11 L4,11 C4.51283143,11 4.93550653,11.386027 4.9932722,11.8833761 L5,12 L5,14 C5,14.51285 4.61395571,14.9355092 4.11662025,14.9932725 L4,15 L2,15 C1.48716857,15 1.06449347,14.613973 1.0067278,14.1166239 L1,14 L1,12 C1,11.48715 1.38604429,11.0644908 1.88337975,11.0067275 L2,11 L4,11 L2,11 Z M14,12 C14.5523,12 15,12.4477 15,13 C15,13.5523 14.5523,14 14,14 L8,14 C7.44772,14 7,13.5523 7,13 C7,12.4477 7.44772,12 8,12 L14,12 Z M4,12 L2,12 L2,14 L4,14 L4,12 Z M4,6 C4.55228,6 5,6.44772 5,7 L5,9 C5,9.55228 4.55228,10 4,10 L2,10 C1.44772,10 1,9.55228 1,9 L1,7 C1,6.44772 1.44772,6 2,6 L4,6 Z M14,7 C14.5523,7 15,7.44772 15,8 C15,8.51283143 14.613973,8.93550653 14.1166239,8.9932722 L14,9 L8,9 C7.44772,9 7,8.55228 7,8 C7,7.48716857 7.38604429,7.06449347 7.88337975,7.0067278 L8,7 L14,7 Z M4,7 L2,7 L2,9 L4,9 L4,7 Z M4.77466,1.22614 C5.04092364,1.49240364 5.06512942,1.90907223 4.84727736,2.20268222 L4.77466,2.2868 L2.28033,4.78113 C2.13968,4.92179 1.94891,5.0008 1.75,5.0008 C1.590872,5.0008 1.4369536,4.9502336 1.30973856,4.85798912 L1.21967,4.78113 L0.21967,3.78113 C-0.0732233,3.48824 -0.0732233,3.01337 0.21967,2.72047 C0.485936364,2.45420636 0.902600248,2.43000058 1.19621162,2.64785264 L1.28033,2.72047 L1.75,3.19014 L3.714,1.22614 C4.00689,0.933247 4.48176,0.933246 4.77466,1.22614 Z M14,2 C14.5523,2 15,2.44772 15,3 C15,3.51283143 14.613973,3.93550653 14.1166239,3.9932722 L14,4 L8,4 C7.44772,4 7,3.55228 7,3 C7,2.48716857 7.38604429,2.06449347 7.88337975,2.0067278 L8,2 L14,2 Z"/>
</svg>
