<svg xmlns="http://www.w3.org/2000/svg" width="16" height="16" viewBox="0 0 16 16">
  <path fill="#000000" fillRule="evenodd" d="M2.5,4.5 C3.32843,4.5 4,3.82843 4,3 C4,2.17157 3.32843,1.5 2.5,1.5 C1.67157,1.5 1,2.17157 1,3 C1,3.82843 1.67157,4.5 2.5,4.5 Z M7,2 C6.44772,2 6,2.44772 6,3 C6,3.55228 6.44772,4 7,4 L14,4 C14.5523,4 15,3.55228 15,3 C15,2.44772 14.5523,2 14,2 L7,2 Z M6,8 C6,7.44772 6.44772,7 7,7 L14,7 C14.5523,7 15,7.44772 15,8 C15,8.55229 14.5523,9 14,9 L7,9 C6.44772,9 6,8.55229 6,8 Z M2.5,9.5 C3.32843,9.5 4,8.82843 4,8 C4,7.17157 3.32843,6.5 2.5,6.5 C1.67157,6.5 1,7.17157 1,8 C1,8.82843 1.67157,9.5 2.5,9.5 Z M6,13 C6,12.4477 6.44772,12 7,12 L14,12 C14.5523,12 15,12.4477 15,13 C15,13.5523 14.5523,14 14,14 L7,14 C6.44772,14 6,13.5523 6,13 Z M2.5,14.5 C3.32843,14.5 4,13.8284 4,13 C4,12.1716 3.32843,11.5 2.5,11.5 C1.67157,11.5 1,12.1716 1,13 C1,13.8284 1.67157,14.5 2.5,14.5 Z"/>
</svg>
