<svg xmlns="http://www.w3.org/2000/svg" width="16" height="16" viewBox="0 0 16 16">
  <path fill="#000000" d="M2.75,11 C3.44036,11 4,11.5596 4,12.25 C4,12.5314 3.90701,12.7911 3.75009,13 C3.90701,13.2089 4,13.4686 4,13.75 C4,14.4404 3.44036,15 2.75,15 L1,15 L1,14 L2.75,14 C2.88807,14 3,13.8881 3,13.75 C3,13.6119 2.88807,13.5 2.75,13.5 L2,13.5 L2,12.5 L2.75,12.5 C2.88807,12.5 3,12.3881 3,12.25 C3,12.1119 2.88807,12 2.75,12 L1,12 L1,11 L2.75,11 Z M14,12 C14.5523,12 15,12.4477 15,13 C15,13.5523 14.5523,14 14,14 L7,14 C6.44772,14 6,13.5523 6,13 C6,12.4477 6.44772,12 7,12 L14,12 Z M1.00004,6.00781 L2.63675,6.00781 C3.00139,6.00781 3.35125,6.15193 3.6101,6.40875 C4.18216588,6.97635471 4.14383564,7.89999429 3.55640337,8.42152942 L3.43984,8.51442 L2.75985,9 L3.99995,9 L4.00002,10 L1,10 L1,9.02789 L2.85871,7.70061 C3.0513,7.56309 3.07376,7.28531 2.90577,7.11863 C2.852115,7.0653875 2.7843075,7.0296725 2.71124062,7.01514266 L2.63675,7.00781 L1.00004,7.00781 L1.00004,6.00781 Z M14,7 C14.5523,7 15,7.44772 15,8 C15,8.51283143 14.613973,8.93550653 14.1166239,8.9932722 L14,9 L7,9 C6.44772,9 6,8.55228 6,8 C6,7.48716857 6.38604429,7.06449347 6.88337975,7.0067278 L7,7 L14,7 Z M3,1 L3,4 L4,4 L4,5 L1,5 L1,4 L2,4 L2,2 L1,2 L1,1 L3,1 Z M14,2 C14.5523,2 15,2.44772 15,3 C15,3.51283143 14.613973,3.93550653 14.1166239,3.9932722 L14,4 L7,4 C6.44772,4 6,3.55228 6,3 C6,2.48716857 6.38604429,2.06449347 6.88337975,2.0067278 L7,2 L14,2 Z"/>
</svg>
