<svg xmlns="http://www.w3.org/2000/svg" width="16" height="16" viewBox="0 0 16 16">
  <path fill="#000000" d="M8,0 C11.3137,0 14,2.68629 14,6 C14,7.33918 13.5613,8.57588 12.8197,9.57422 L7.99994,16 L3.1803,9.57422 C2.43873,8.57588 2,7.33918 2,6 C2,2.68629 4.68629,0 8,0 Z M8,2 C5.79086,2 4,3.79086 4,6 C4,6.89363 4.29068,7.71358 4.78334,8.37826 L7.99996,12.6668 L11.2167,8.37817 C11.7093,7.71351 12,6.89359 12,6 C12,3.79086 10.2091,2 8,2 Z M8,4 C9.10457,4 10,4.89543 10,6 C10,7.10457 9.10457,8 8,8 C6.89543,8 6,7.10457 6,6 C6,4.89543 6.89543,4 8,4 Z"/>
</svg>
