<svg xmlns="http://www.w3.org/2000/svg" width="16" height="16" viewBox="0 0 16 16">
  <path fill="#000000" fillRule="evenodd" d="M9,10 L9,12 L7,12 L7,10 L9,10 Z M4,6 L4,4 C4,1.79086 5.79086,0 8,0 C9.75063,0 11.2386,1.12462 11.78084,2.69081 C11.81471,2.78865 11.82812,2.89709 11.82812,3 C11.82812,3.55228 11.38041,4 10.82812,4 C10.37934,4 9.9996,3.70436 9.87303,3.29721 C9.58854,2.53934 8.85725,2 8,2 C6.89543,2 6,2.89543 6,4 L6,6 L14,6 L14,16 L2,16 L2,6 L4,6 Z M4,8 L4,14 L12,14 L12,8 L4,8 Z"/>
</svg>
