<svg xmlns="http://www.w3.org/2000/svg" width="16" height="16" viewBox="0 0 16 16">
  <g fill="#000000" fillRule="evenodd" transform="translate(2 1)">
    <path fillRule="nonzero" d="M3 4C3 3.44772 3.44772 3 4 3 4.55228 3 5 3.44772 5 4 5 4.55228 4.55228 5 4 5 3.44772 5 3 4.55228 3 4zM7 3C6.44772 3 6 3.44772 6 4 6 4.55228 6.44771 5 7 5L8 5C8.5523 5 9 4.55228 9 4 9 3.44772 8.5523 3 8 3L7 3zM6 7C6 6.44772 6.44772 6 7 6L8 6C8.5523 6 9 6.44772 9 7 9 7.55228 8.5523 8 8 8L7 8C6.44771 8 6 7.55228 6 7zM3 7C3 6.44772 3.44772 6 4 6 4.55228 6 5 6.44772 5 7 5 7.55228 4.55228 8 4 8 3.44772 8 3 7.55228 3 7zM6 10C6 9.4477 6.44772 9 7 9L8 9C8.5523 9 9 9.4477 9 10 9 10.5523 8.5523 11 8 11L7 11C6.44771 11 6 10.5523 6 10zM3 10C3 9.4477 3.44772 9 4 9 4.55228 9 5 9.4477 5 10 5 10.5523 4.55228 11 4 11 3.44772 11 3 10.5523 3 10z"/>
    <path d="M0,1 C0,0.44772 0.44772,0 1,0 L11,0 C11.5523,0 12,0.44772 12,1 L12,13 C12,13.5523 11.5523,14 11,14 L1,14 C0.44772,14 0,13.5523 0,13 L0,1 Z M2,12 L2,2 L10,2 L10,12 L2,12 Z"/>
  </g>
</svg>
