<svg xmlns="http://www.w3.org/2000/svg" width="16" height="16" viewBox="0 0 16 16">
  <path fill="#000000" d="M3,12 L3,13 L4,13 L4,15 L1,15 L1,12 L3,12 Z M8.19418406,6.94648449 L8.29786,6.9848 L13.5406,9.2317 C14.4056875,9.60243125 14.3154524,10.8303997 13.45886,11.1016009 L13.3428,11.1314 L12.6785,11.2643 L14.7071,13.2929 C15.0976,13.6834 15.0976,14.3166 14.7071,14.7071 C14.3466385,15.0675615 13.7793793,15.0952893 13.3871027,14.7902834 L13.2929,14.7071 L11.2643,12.6785 L11.1314,13.3428 C10.946825,14.265675 9.72661311,14.4304085 9.28477742,13.6480353 L9.23171,13.5406 L6.9848,8.29787 C6.64401667,7.50271208 7.40030219,6.69909568 8.19418406,6.94648449 Z M3,6 L3,10 L1,10 L1,6 L3,6 Z M4,1 L4,3 L3,3 L3,4 L1,4 L1,1 L4,1 Z M15,1 L15,4 L13,4 L13,3 L12,3 L12,1 L15,1 Z M10,1 L10,3 L6,3 L6,1 L10,1 Z"/>
</svg>
