<svg xmlns="http://www.w3.org/2000/svg" width="16" height="16" viewBox="0 0 16 16">
  <path fill="#000000" fillRule="evenodd" d="M13,1 C14.0543909,1 14.9181678,1.81587733 14.9945144,2.85073759 L15,3 L15,6.1718 L13,8.1718 L13,3 L3,3 L3,13 L8.1718,13 L6.1718,15 L3,15 C1.94563773,15 1.08183483,14.18415 1.00548573,13.1492661 L1,13 L1,3 C1,1.94563773 1.81587733,1.08183483 2.85073759,1.00548573 L3,1 L13,1 Z M15,9.00023 L15,13 C15,14.0543909 14.18415,14.9181678 13.1492661,14.9945144 L13,15 L9.00023,15 L11.0002,13 L13,13 L13,11.0002 L15,9.00023 Z M9.5,8 L11.2135,9.95829 L9.1718,12 L4,12 L4,10.8 L5.5,9 L7.02439,10.8293 L9.5,8 Z M6.5,5 C7.32843,5 8,5.67157 8,6.5 C8,7.32843 7.32843,8 6.5,8 C5.67157,8 5,7.32843 5,6.5 C5,5.67157 5.67157,5 6.5,5 Z"/>
</svg>
