<svg xmlns="http://www.w3.org/2000/svg" width="16" height="16" viewBox="0 0 16 16">
  <path fill="#000000" fillRule="evenodd" d="M9,3 C11.7614,3 14,5.23858 14,8 L14,11.2676 C14.5978,11.6134 15,12.2597 15,13 C15,14.1046 14.1046,15 13,15 C11.8954,15 11,14.1046 11,13 C11,12.2597 11.4022,11.6134 12,11.2676 L12,8 C12,6.34315 10.6569,5 9,5 C8.44772,5 8,4.55228 8,4 C8,3.44772 8.44772,3 9,3 Z M4,8 C4.55228,8 5,8.44771 5,9 L5,11.2676 C5.5978,11.6134 6,12.2597 6,13 C6,14.1046 5.10457,15 4,15 C2.89543,15 2,14.1046 2,13 C2,12.2597 2.4022,11.6134 3,11.2676 L3,9 C3,8.44772 3.44772,8 4,8 Z M1.29289,1.29289 C1.65337923,0.932409077 2.22060645,0.904679775 2.61290152,1.20970209 L2.70711,1.29289 L3.99999925,2.58579 L5.29289,1.29289 C5.68342,0.902369 6.31658,0.902369 6.70711,1.29289 C7.06759,1.65337923 7.09531923,2.22060645 6.79029769,2.61290152 L6.70711,2.70711 L5.41421,3.99999925 L6.70711,5.29289 C7.09763,5.68342 7.09763,6.31658 6.70711,6.70711 C6.34662077,7.06759 5.77939355,7.09531923 5.38709848,6.79029769 L5.29289,6.70711 L3.99999925,5.41421 L2.70711,6.70711 C2.31658,7.09763 1.68342,7.09763 1.29289,6.70711 C0.932409077,6.34662077 0.904679775,5.77939355 1.20970209,5.38709848 L1.29289,5.29289 L2.58579,3.99999925 L1.29289,2.70711 C0.902369,2.31658 0.902369,1.68342 1.29289,1.29289 Z"/>
</svg>
