<svg xmlns="http://www.w3.org/2000/svg" width="16" height="16" viewBox="0 0 16 16">
  <path fill="#000000" fillRule="evenodd" d="M4,4.27832168 C2.34315,4.27832168 1,5.62147168 1,7.27832168 C1,8.93517168 2.34315,10.2783217 4,10.2783217 L4.11326,10.2783217 L6.137,13.7835217 C6.31501,14.0918217 6.64398,14.2818217 7,14.2818217 C7.76714,14.2818217 8.24661,13.4513217 7.86304,12.7870217 L6.41466,10.2783217 L8.00004,10.2783217 L13.5039,13.4233217 C14.1705,13.8043217 15,13.3229217 15,12.5551217 L15,2.00148168 C15,1.23365168 14.1705,0.752291677 13.5039,1.13323168 L8,4.27830168 L4,4.27832168 Z M4,6.27830168 L7,6.27830168 L7,8.27832168 L4,8.27832168 C3.44772,8.27832168 3,7.83060168 3,7.27832168 C3,6.72604168 3.44773,6.27830168 4,6.27830168 Z M13,10.8319217 L9,8.54622168 L9,6.01037168 L13,3.72466168 L13,10.8319217 Z"/>
</svg>
