<svg xmlns="http://www.w3.org/2000/svg" width="16" height="16" viewBox="0 0 16 16">
  <path fill="#000000" fillRule="evenodd" d="M1,2 L15,2 C15.51285,2 15.9355092,2.38604429 15.9932725,2.88337975 L16,3 L16,11 C16,11.51285 15.613973,11.9355092 15.1166239,11.9932725 L15,12 L9,12 L9,13 L13,13 C13.5523,13 14,13.4477 14,14 C14,14.51285 13.613973,14.9355092 13.1166239,14.9932725 L13,15 L3,15 C2.44772,15 2,14.5523 2,14 C2,13.48715 2.38604429,13.0644908 2.88337975,13.0067275 L3,13 L7,13 L7,12 L1,12 C0.487163929,12 0.0644928061,11.613973 0.00672772777,11.1166239 L0,11 L0,3 C0,2.48716857 0.386039974,2.06449347 0.883378828,2.0067278 L1,2 L15,2 L1,2 Z M14,4 L2,4 L2,10 L14,10 L14,4 Z M8,6 C8.55228,6 9,6.44772 9,7 C9,7.55228 8.55228,8 8,8 L4,8 C3.44772,8 3,7.55228 3,7 C3,6.44772 3.44772,6 4,6 L8,6 Z M12,6 C12.5523,6 13,6.44772 13,7 C13,7.55228 12.5523,8 12,8 L11,8 C10.4477,8 10,7.55228 10,7 C10,6.44772 10.4477,6 11,6 L12,6 Z"/>
</svg>
