<svg xmlns="http://www.w3.org/2000/svg" width="16" height="16" viewBox="0 0 16 16">
  <path fill="#000000" d="M15,2 C15.5523,2 16,2.44772 16,3 L16,11 C16,11.5523 15.5523,12 15,12 L9,12 L9,13 L13,13 C13.5523,13 14,13.4477 14,14 C14,14.5523 13.5523,15 13,15 L3,15 C2.44772,15 2,14.5523 2,14 C2,13.4477 2.44772,13 3,13 L7,13 L7,12 L1,12 C0.447715,12 0,11.5523 0,11 L0,3 C0,2.44772 0.447715,2 1,2 L15,2 Z M14,4 L2,4 L2,10 L14,10 L14,4 Z M5,7 C5.55228,7 6,7.44772 6,8 C6,8.55228 5.55228,9 5,9 C4.44772,9 4,8.55228 4,8 C4,7.44772 4.44772,7 5,7 Z M8,5 C8.55228,5 9,5.44772 9,6 L9,8 C9,8.55228 8.55228,9 8,9 C7.44772,9 7,8.55228 7,8 L7,6 C7,5.44772 7.44772,5 8,5 Z M11,6 C11.51285,6 11.9355092,6.38604429 11.9932725,6.88337975 L12,7 L12,8 C12,8.55228 11.5523,9 11,9 C10.48715,9 10.0644908,8.61395571 10.0067275,8.11662025 L10,8 L10,7 C10,6.44772 10.4477,6 11,6 Z"/>
</svg>
