<svg xmlns="http://www.w3.org/2000/svg" width="16" height="16" viewBox="0 0 16 16">
  <path fill="#000000" fillRule="evenodd" d="M12.9893,6.66974 C12.9964,6.77891 13,6.88903 13,7 L13,11 L14.2929,12.2929 C14.9229,12.9229 14.4767,14 13.5858,14 L9.73245,14 C9.38664,14.5978 8.7403,15 8.00002,15 C7.25973,15 6.61339,14.5978 6.26758,14 L5.65903,14 L7.65903,12 L11,12 L11,8.659 L12.9893,6.66974 Z M8,1 C8.55228,1 9,1.44772 9,2 C9,2.03342 8.99836,2.06646 8.99516,2.09903 C9.73661,2.24877 10.4186,2.56254 11.0016,3.00086 L12.2929,1.70958 C12.6835,1.31906 13.3166,1.31906 13.7071,1.70958 C14.0977,2.10011 14.0977,2.73327 13.7071,3.12379 C12.5318,4.29915 11.3598,5.47848 10.1877,6.65792 C7.83697,9.02332 5.48586,11.3891 3.10657,13.724 C2.71494,14.0989 2.09355,14.0937 1.7083,13.7084 C1.31777,13.3179 1.31777,12.6847 1.7083,12.2942 L3.00002,11.0025 L3.00002,7 C3.00002,4.57934 4.7202,2.56045 7.00484,2.09904 C7.00164,2.06646 7,2.03342 7,2 C7,1.44772 7.44772,1 8,1 Z M8.00002,4 C6.34317,4 5.00002,5.34315 5.00002,7 L5.00002,9.00249 L9.56343,4.43908 C9.10815,4.16054 8.57283,4 8.00002,4 Z"/>
</svg>
