<svg xmlns="http://www.w3.org/2000/svg" width="16" height="16" viewBox="0 0 16 16">
  <path fill="#000000" d="M8,0 C12.4183,0 16,3.58172 16,8 C16,12.4183 12.4183,16 8,16 C3.58172,16 0,12.4183 0,8 C0,3.58172 3.58172,0 8,0 Z M9.96769,2.33008 L8.00003,3.75964 L6.03235,2.33008 C4.91352,2.7183 3.94514,3.42833 3.23798,4.34941 L3.99243,6.67139 L2.00114,8.1181 C2.02449,9.32777 2.40584,10.4498 3.04363,11.3825 L5.52319,11.3825 L6.29373,13.7539 C6.83455,13.914 7.40724,14 8,14 C8.59275,14 9.16542,13.914 9.70623,13.7539 L10.4767,11.3824 L12.9564,11.3824 C13.5942,10.4497 13.9755,9.32771 13.9989,8.11805 L12.0076,6.67133 L12.7621,4.34947 C12.0549,3.42837 11.0865,2.71833 9.96769,2.33008 Z M8.00002,5 L10.8532,7.07295 L9.76338,10.4271 L6.23666,10.4271 L5.14685,7.07295 L8.00002,5 Z"/>
</svg>
