<svg xmlns="http://www.w3.org/2000/svg" width="16" height="16" viewBox="0 0 16 16">
  <path fill="#000000" d="M8,2 C8.55229,2 9,2.44771 9,3 C9,3.55228 8.55229,4 8,4 L4,4 L4,12 L12,12 L12,8 C12,7.44771 12.4477,7 13,7 C13.5523,7 14,7.44771 14,8 L14,12 C14,13.1046 13.1046,14 12,14 L4,14 C2.89543,14 2,13.1046 2,12 L2,4 C2,2.89543 2.89543,2 4,2 L8,2 Z M11.9531,2.63268 L13.3673,4.04689 L7.41421,10 L6,10 L6,8.58579 L11.9531,2.63268 Z M14.7815,1.21846 C15.1721,1.60898 15.1721,2.24215 14.7815,2.63267 L14.0744,3.33979 L12.6602,1.92556737 L13.3673,1.21846 C13.7578,0.827937 14.391,0.827936 14.7815,1.21846 Z"/>
</svg>
