<svg xmlns="http://www.w3.org/2000/svg" width="16" height="16" viewBox="0 0 16 16">
  <path fill="#000000" fillRule="evenodd" d="M8,0 C12.4183,0 16,3.58172 16,8 C16,12.4183 12.4183,16 8,16 C3.58172,16 0,12.4183 0,8 C0,3.58172 3.58172,0 8,0 Z M8.99665,2.0824 C8.95475,2.59614 8.52454,3 8,3 C7.47546,3 7.04525,2.59614 7.00335,2.0824 C6.20919,2.21517 5.46786,2.50394 4.81194,2.91613 C4.93028,3.08041 5,3.28206 5,3.5 C5,4.05228 4.55228,4.5 4,4.5 C3.74005,4.5 3.50327,4.40081 3.32544,4.23822 C2.89297,4.77495 2.55104,5.3877 2.32287,6.05327 C2.71672,6.18755 3,6.56069 3,7 C3,7.55228 2.55228,8 2,8 C2,11.3137 4.68629,14 8,14 C11.3137,14 14,11.3137 14,8 C13.4477,8 13,7.55228 13,7 C13,6.56069 13.2833,6.18755 13.6771,6.05327 C13.449,5.3877 13.107,4.77495 12.6746,4.23822 C12.4967,4.40081 12.2599,4.5 12,4.5 C11.4477,4.5 11,4.05228 11,3.5 C11,3.28206 11.0697,3.08041 11.1881,2.91613 C10.5321,2.50394 9.79081,2.21517 8.99665,2.0824 Z M8,4 L9,5 L9,8.26756 C9.5978,8.61337 10,9.25972 10,10 C10,11.1046 9.10457,12 8,12 C6.89543,12 6,11.1046 6,10 C6,9.25972 6.4022,8.61337 7,8.26756 L7,5 L8,4 Z"/>
</svg>
