<svg xmlns="http://www.w3.org/2000/svg" width="16" height="16" viewBox="0 0 16 16">
  <path fill="#000000" fillRule="evenodd" d="M11,1 C11.5523,1 12,1.44772 12,2 L12,3 L13,3 C14.1046,3 15,3.89543 15,5 L15,13 C15,14.1046 14.1046,15 13,15 L3,15 C1.89543,15 1,14.1046 1,13 L1,5 C1,3.89543 1.89543,3 3,3 L4,3 L4,2 C4,1.44772 4.44772,1 5,1 C5.55228,1 6,1.44772 6,2 L6,3 L10,3 L10,2 C10,1.44772 10.4477,1 11,1 Z M4,5 L3,5 L3,13 L13,13 L13,5 L12,5 C12,5.55228 11.5523,6 11,6 C10.4477,6 10,5.55228 10,5 L6,5 C6,5.55228 5.55228,6 5,6 C4.44772,6 4,5.55228 4,5 Z M9.12102,7.29289 C9.51154,6.90237 10.1447,6.90237 10.5352,7.29289 C10.9258,7.68342 10.9258,8.31658 10.5352,8.70711 L7.70711,11.5352 C7.31658,11.9258 6.68342,11.9258 6.29289,11.5352 L5.29289,10.5352 C4.90237,10.1447 4.90237,9.51154 5.29289,9.12102 C5.68342,8.73049 6.31658,8.73049 6.70711,9.12102 L7,9.41391 L9.12102,7.29289 Z"/>
</svg>
