<svg xmlns="http://www.w3.org/2000/svg" width="16" height="16" viewBox="0 0 16 16">
  <path fill="#000000" fillRule="evenodd" d="M1.07178,5.15469 C1.07178,4.44016 1.45298,3.7799 2.07178,3.42264 L6.99998,0.577336 C7.61878,0.220071 8.38118,0.220071 8.99998,0.577336 L13.9282,3.42264 C14.547,3.7799 14.9282,4.44016 14.9282,5.15469 L14.9282,10.8453 C14.9282,11.5598 14.547,12.2201 13.9282,12.5773 L8.99998,15.4226 C8.38118,15.7799 7.61878,15.7799 6.99998,15.4226 L2.07178,12.5773 C1.45298,12.2201 1.07178,11.5598 1.07178,10.8453 L1.07178,5.15469 Z M7.99998,2.30939 L12.9282,5.15699 L7.99998,8.00229 L3.07178,5.15699 L7.99998,2.30939 Z M12.9282,7.46639 L9,9.73433 L9,13.1132 L12.9282,10.8453 L12.9282,7.46639 Z M7,13.1132 L7,9.73435 L3.07178,7.46639 L3.07178,10.8453 L7,13.1132 Z"/>
</svg>
