<svg xmlns="http://www.w3.org/2000/svg" width="16" height="16" viewBox="0 0 16 16">
  <path fill="#000000" d="M8,11 C8.55228,11 9,11.4477 9,12 L9,15 C9,15.5523 8.55228,16 8,16 C7.44772,16 7,15.5523 7,15 L7,12 C7,11.4477 7.44772,11 8,11 Z M8.00000009,2.30926389e-14 C9.58225,2.30926389e-14 11.129,0.469192 12.4446,1.34824 C13.7602,2.22729 14.7855,3.47672 15.391,4.93853 C15.9965,6.40034 16.155,8.00887 15.8463,9.56072 C15.5376,11.1126 14.7757,12.538 13.6569,13.6569 C13.2663,14.0474 12.6332,14.0474 12.2426,13.6569 C11.8521,13.2663 11.8521,12.6332 12.2426,12.2426 C13.0818,11.4035 13.6532,10.3344 13.8847,9.17054 C14.1162,8.00666 13.9974,6.80026 13.5433,5.7039 C13.0892,4.60754 12.3201,3.67047 11.3334,3.01118 C10.3467,2.35189 9.18669,2 8.00000009,2 C6.81332,2 5.65328,2.35189 4.66658,3.01118 C3.67989,3.67047 2.91085,4.60754 2.45673,5.7039 C2.0026,6.80026 1.88378,8.00666 2.11529,9.17054 C2.3468,10.3344 2.91825,11.4035 3.75736,12.2426 C4.14789,12.6332 4.14789,13.2663 3.75736,13.6569 C3.36684,14.0474 2.73367,14.0474 2.34315,13.6569 C1.22433,12.538 0.462403,11.1126 0.153721,9.56072 C-0.15496,8.00887 0.00346637,6.40034 0.608967,4.93853 C1.21447,3.47672 2.23985,2.22729 3.55544,1.34824 C4.87104,0.469192 6.41775,2.30926389e-14 8.00000009,2.30926389e-14 Z M8.00000197,3 C8.98891,3 9.95561,3.29324 10.7779,3.84265 C11.6001,4.39206 12.241,5.17295 12.6194,6.08658 C12.9978,7.00021 13.0969,8.00555 12.9039,8.97545 C12.711,9.94536 12.2348,10.8363 11.5355,11.5355 C11.145,11.9261 10.5118,11.9261 10.1213,11.5355 C9.7308,11.145 9.7308,10.5118 10.1213,10.1213 C10.5409,9.70176 10.8266,9.16721 10.9424,8.58527 C11.0581,8.00333 10.9987,7.40013 10.7716,6.85195 C10.5446,6.30377 10.1601,5.83524 9.66671,5.50559 C9.17337,5.17595 8.59335,5 8.00000197,5 C7.40666,5 6.82664,5.17595 6.33329,5.50559 C5.83994,5.83524 5.45543,6.30377 5.22836,6.85195 C5.0013,7.40013 4.94189,8.00333 5.05765,8.58527 C5.1734,9.16721 5.45912,9.70176 5.87868,10.1213 C6.26921,10.5118 6.26921,11.145 5.87868,11.5355 C5.48816,11.9261 4.85499,11.9261 4.46447,11.5355 C3.76521,10.8363 3.289,9.94536 3.09608,8.97545 C2.90315,8.00555 3.00217,7.00021 3.3806,6.08658 C3.75904,5.17295 4.39991,4.39206 5.22215,3.84265 C6.0444,3.29324 7.0111,3 8.00000197,3 Z M8,6 C9.10457,6 10,6.89543 10,8 C10,9.10457 9.10457,10 8,10 C6.89543,10 6,9.10457 6,8 C6,6.89543 6.89543,6 8,6 Z"/>
</svg>
