<svg xmlns="http://www.w3.org/2000/svg" width="16" height="16" viewBox="0 0 16 16">
  <path fill="#000000" fillRule="evenodd" d="M4,8 C5.240909,8 6.30584855,8.75341602 6.76233298,9.8277624 L6.82929,10 L14,10 C14.5523,10 15,10.4477 15,11 C15,11.51285 14.613973,11.9355092 14.1166239,11.9932725 L14,12 L6.82929,12 C6.41746,13.1652 5.30622,14 4,14 C2.34315,14 1,12.6569 1,11 C1,9.34315 2.34315,8 4,8 Z M4,10 C3.44772,10 3,10.4477 3,11 C3,11.5523 3.44772,12 4,12 C4.55228,12 5,11.5523 5,11 C5,10.4477 4.55228,10 4,10 Z M12,2 C13.6569,2 15,3.34315 15,5 C15,6.65685 13.6569,8 12,8 C10.75911,8 9.69415335,7.24658397 9.23766716,6.1722376 L9.17071,6 L2,6 C1.44772,6 1,5.55228 1,5 C1,4.48716857 1.38604429,4.06449347 1.88337975,4.0067278 L2,4 L9.17071,4 C9.58254,2.83481 10.6938,2 12,2 Z M12,4 C11.4477,4 11,4.44772 11,5 C11,5.55228 11.4477,6 12,6 C12.5523,6 13,5.55228 13,5 C13,4.44772 12.5523,4 12,4 Z"/>
</svg>
