<svg xmlns="http://www.w3.org/2000/svg" width="16" height="16" viewBox="0 0 16 16">
  <path fill="#000000" fillRule="evenodd" d="M4,1 C4.55228,1 5,1.44772 5,2 L5,4.12602 C6.72523,4.57006 8,6.13616 8,8 C8,9.86384 6.72523,11.4299 5,11.874 L5,14 C5,14.5523 4.55228,15 4,15 C3.44772,15 3,14.5523 3,14 L3,11.874 C1.27477,11.4299 0,9.86384 0,8 C0,6.13616 1.27477,4.57006 3,4.12602 L3,2 C3,1.44772 3.44772,1 4,1 Z M15,10 C15.5523,10 16,10.4477 16,11 C16,11.5523 15.5523,12 15,12 L10,12 C9.44771,12 9,11.5523 9,11 C9,10.4477 9.44772,10 10,10 L15,10 Z M4,6 C2.89543,6 2,6.89543 2,8 C2,9.10457 2.89543,10 4,10 C5.10457,10 6,9.10457 6,8 C6,6.89543 5.10457,6 4,6 Z M10,7 L15,7 C15.5523,7 16,7.44772 16,8 C16,8.51283143 15.613973,8.93550653 15.1166239,8.9932722 L15,9 L10,9 C9.44771,9 9,8.55228 9,8 C9,7.48716857 9.38604429,7.06449347 9.88337975,7.0067278 L10,7 Z M15,4 C15.5523,4 16,4.44772 16,5 C16,5.51283143 15.613973,5.93550653 15.1166239,5.9932722 L15,6 L10,6 C9.44771,6 9,5.55228 9,5 C9,4.48716857 9.38604429,4.06449347 9.88337975,4.0067278 L10,4 L15,4 Z"/>
</svg>
