<svg xmlns="http://www.w3.org/2000/svg" width="16" height="16" viewBox="0 0 16 16">
  <path fill="#000000" d="M10.7667,0.493645 C9.11991,-0.113331 7.31921,-0.161915 5.64208,0.355379 C4.48206,0.713177 3.42569,1.32796 2.54743,2.14597 L1.70711,1.30564 C1.07714,0.675676 0,1.12184 0,2.01275 L0,6.00002 L3.98727,6.00002 C4.87818,6.00002 5.32434,4.92288 4.69438,4.29291 L3.96284,3.56137 C4.61101,2.97184 5.38443,2.52782 6.23156,2.26653 C7.4894,1.87856 8.83993,1.915 10.075,2.37023 C11.3101,2.82547 12.3612,3.67423 13.0664,4.78573 C13.7716,5.89723 14.0916,7.20978 13.9773,8.52112 C13.863,9.83246 13.3206,11.0698 12.4337,12.0425 C11.5469,13.0152 10.3647,13.6693 9.06949,13.9039 C7.77425,14.1385 6.43779,13.9407 5.26607,13.3409 C4.09434,12.7412 3.15236,11.7727 2.5853,10.5848 C2.34738,10.0864 1.75046,9.8752 1.25205,10.1131 C0.753645,10.351 0.542478,10.948 0.7804,11.4464 C1.53649,13.0302 2.79245,14.3215 4.35475,15.1213 C5.91706,15.921 7.699,16.1847 9.42598,15.8719 C11.153,15.559 12.7291,14.687 13.9116,13.39 C15.0941,12.0931 15.8173,10.4433 15.9698,8.69483 C16.1222,6.94637 15.6954,5.1963 14.7552,3.7143 C13.815,2.2323 12.4135,1.10062 10.7667,0.493645 Z"/>
</svg>
