<svg xmlns="http://www.w3.org/2000/svg" width="16" height="16" viewBox="0 0 16 16">
  <path fill="#000000" fillRule="evenodd" d="M8,0 C8.55228,0 9,0.447715 9,1 L11,1 L11,2 L13,2 C13.5523,2 14,2.44772 14,3 L14,15 C14,15.5523 13.5523,16 13,16 L3,16 C2.44772,16 2,15.5523 2,15 L2,3 C2,2.44772 2.44772,2 3,2 L5,2 L5,1 L7,1 C7,0.447715 7.44772,0 8,0 Z M5,4 L4,4 L4,14 L12,14 L12,4 L11,4 L11,5 L5,5 L5,4 Z M6,10 L10,10 C10.5523,10 11,10.4477 11,11 C11,11.51285 10.613973,11.9355092 10.1166239,11.9932725 L10,12 L6,12 C5.44772,12 5,11.5523 5,11 C5,10.48715 5.38604429,10.0644908 5.88337975,10.0067275 L6,10 Z M10,7 C10.5523,7 11,7.44772 11,8 C11,8.55228 10.5523,9 10,9 L6,9 C5.44772,9 5,8.55228 5,8 C5,7.44772 5.44772,7 6,7 L10,7 Z M8,2 C7.44772,2 7,2.44772 7,3 C7,3.55228 7.44772,4 8,4 C8.55228,4 9,3.55228 9,3 C9,2.44772 8.55228,2 8,2 Z"/>
</svg>
