<svg xmlns="http://www.w3.org/2000/svg" width="16" height="16" viewBox="0 0 16 16">
  <path fill="#000000" d="M8,1 C7.44772,1 7,1.44772 7,2 L7,3 L2,3 C1.44772,3 1,3.44772 1,4 C1,4.55228 1.44772,5 2,5 L2.4923,5 L1.15271,8.23407 C0.730101,9.25458 1.21472,10.4245 2.23523,10.8472 C3.25574,11.2699 4.42566,10.7853 4.84839,9.76483 C5.0614,9.25055 5.04394,8.6983 4.84363,8.2229 L3.50867,5 L7,5 L7,13 L6,13 C5.44772,13 5,13.4477 5,14 C5,14.5523 5.44772,15 6,15 L10,15 C10.5523,15 11,14.5523 11,14 C11,13.4477 10.5523,13 10,13 L9,13 L9,5 L12.4923,5 L11.1527,8.23407 C10.7301,9.25458 11.2147,10.4245 12.2352,10.8472 C13.2557,11.2699 14.4257,10.7853 14.8484,9.76483 C15.0614,9.25055 15.0439,8.6983 14.8436,8.2229 L13.5087,5 L14,5 C14.5523,5 15,4.55228 15,4 C15,3.44772 14.5523,3 14,3 L9,3 L9,2 C9,1.44772 8.55229,1 8,1 Z"/>
</svg>
