<svg xmlns="http://www.w3.org/2000/svg" width="16" height="16" viewBox="0 0 16 16">
  <path fill="#000000" fillRule="evenodd" d="M5.29295,9.27229 C5.68348,8.88177 6.31664,8.88177 6.70717,9.2723 C7.09769,9.66282 7.09769,10.296 6.70716,10.6865 L4.39367,13 L5.00006,13 C5.55234,13 6.00006,13.4477 6.00006,14 C6.00006,14.5523 5.55234,15 5.00006,15 L1,15 L1,11 C1,10.4477 1.44772,10 2,10 C2.55229,10 3,10.4477 3,11 L3,11.5652 L5.29295,9.27229 Z M15.0004,1 L15.0004,5 C15.0004,5.55228 14.5526,6 14.0004,6 C13.4481,6 13.0004,5.55228 13.0004,5 L13.0004,4.43469 L10.7072,6.72789 C10.3166,7.11841 9.68348,7.11841 9.29295,6.72789 C8.90243,6.33736 8.90243,5.7042 9.29295,5.31367 L11.6066,3 L11.0001,3 C10.4478,3 10.0001,2.55228 10.0001,2 C10.0001,1.44772 10.4478,1 11.0001,1 L15.0004,1 Z"/>
</svg>
