<svg xmlns="http://www.w3.org/2000/svg" width="16" height="16" viewBox="0 0 16 16">
  <path fill="#000000" fillRule="evenodd" d="M8,16 C12.418278,16 16,12.418278 16,8 C16,3.581722 12.418278,0 8,0 C3.581722,0 0,3.581722 0,8 C0,12.418278 3.581722,16 8,16 Z M6,3 C6.55228475,3 7,3.44771525 7,4 L7,12 C7,12.5522847 6.55228475,13 6,13 C5.44771525,13 5,12.5522847 5,12 L5,4 C5,3.44771525 5.44771525,3 6,3 Z M10,3 C10.5522847,3 11,3.44771525 11,4 L11,12 C11,12.5522847 10.5522847,13 10,13 C9.44771525,13 9,12.5522847 9,12 L9,4 C9,3.44771525 9.44771525,3 10,3 Z"/>
</svg>
