<svg xmlns="http://www.w3.org/2000/svg" xmlns:xlink="http://www.w3.org/1999/xlink" width="16" height="16" viewBox="0 0 16 16">
  <defs>
    <path id="a" d="M9.33095244,9.33095244 C10.5370132,8.12489168 10.5370132,6.16948083 9.33095244,4.96342007 C8.12489168,3.75735931 6.16948083,3.75735931 4.96342007,4.96342007 C3.75735931,6.16948083 3.75735931,8.12489168 4.96342007,9.33095244 C6.16948083,10.5370132 8.12489168,10.5370132 9.33095244,9.33095244 Z M9.98606911,11.4419132 C7.98755133,12.7659816 5.26838878,12.5476094 3.50757595,10.7867966 C1.49747468,8.7766953 1.49747468,5.51767722 3.50757595,3.50757595 C5.51767722,1.49747468 8.7766953,1.49747468 10.7867966,3.50757595 C12.5476094,5.26838878 12.7659816,7.98755133 11.4419132,9.98606911 L13.6984848,12.2426407 C14.1005051,12.6446609 14.1005051,13.2964646 13.6984848,13.6984848 C13.2964646,14.1005051 12.6446609,14.1005051 12.2426407,13.6984848 L9.98606911,11.4419132 L9.98606911,11.4419132 Z"/>
  </defs>
  <use fill="#cbd5e0" fillRule="evenodd" xlink:href="#a"/>
</svg>
