<svg xmlns="http://www.w3.org/2000/svg" width="16" height="16" viewBox="0 0 16 16">
  <path fill="#000000" fillRule="evenodd" d="M8,0 C12.4183,0 16,3.58172 16,8 C16,12.4183 12.4183,16 8,16 C3.58172,16 0,12.4183 0,8 C0,3.58172 3.58172,0 8,0 Z M8,2 C4.68629,2 2,4.68629 2,8 C2,11.3137 4.68629,14 8,14 C11.3137,14 14,11.3137 14,8 C14,4.68629 11.3137,2 8,2 Z M10.107,9.35077 C10.4657,9.55792 10.5885,10.0166 10.3814,10.3753 C10.1402,10.7928 9.79361,11.1396 9.3762,11.3809 C8.95879,11.6221 8.48529,11.7494 8.00316,11.7500042 C7.52104,11.7506 7.04724,11.6244 6.62928,11.384 C6.21132,11.1437 5.86387,10.7978 5.62179,10.3808 C5.4138,10.0226 5.53559,9.56363 5.8938,9.35564 C6.22215917,9.16499167 6.63520153,9.25143333 6.86196691,9.54307714 L6.91899,9.62765 C7.02902,9.81717 7.18695,9.97443 7.37694,10.0837 C7.56692,10.1929 7.78228,10.2503 8.00143,10.25 C8.22058,10.2497 8.4358,10.1919 8.62554,10.0822 C8.777324,9.994472 8.9085192,9.8760496 9.01104112,9.73502752 L9.08243,9.62515 C9.28959,9.26646 9.74829,9.14361 10.107,9.35077 Z M6,6 C6.55228,6 7,6.44772 7,7 C7,7.55228 6.55228,8 6,8 C5.44772,8 5,7.55228 5,7 C5,6.44772 5.44772,6 6,6 Z M10,6 C10.5523,6 11,6.44772 11,7 C11,7.55228 10.5523,8 10,8 C9.44772,8 9,7.55228 9,7 C9,6.44772 9.44772,6 10,6 Z"/>
</svg>
