<svg xmlns="http://www.w3.org/2000/svg" width="16" height="16" viewBox="0 0 16 16">
  <path fill="#000000" fillRule="evenodd" d="M8,0 C12.4183,0 16,3.58172 16,8 C16,12.4183 12.4183,16 8,16 C3.58172,16 0,12.4183 0,8 C0,3.58172 3.58172,0 8,0 Z M8,2 C4.68629,2 2,4.68629 2,8 C2,11.3137 4.68629,14 8,14 C11.3137,14 14,11.3137 14,8 C14,4.68629 11.3137,2 8,2 Z M8.00316,9.2499963 C8.48529,9.25056 8.95879,9.37786 9.3762,9.61913 C9.79361,9.86041 10.1402,10.2072 10.3814,10.6247 C10.5885,10.9834 10.4657,11.4421 10.107,11.6492 C9.7781825,11.8391333 9.36534563,11.751691 9.13925698,11.459585 L9.08243,11.3749 C8.97283,11.1851 8.81527,11.0275 8.62554,10.9178 C8.4358,10.8081 8.22058,10.7503 8.00143,10.7499963 C7.78228,10.7497 7.56692,10.8071 7.37694,10.9163 C7.224948,11.00374 7.0934744,11.121836 6.99062928,11.2626008 L6.91899,11.3723 C6.711,11.7306 6.25201,11.8523 5.8938,11.6444 C5.53559,11.4364 5.4138,10.9774 5.62179,10.6192 C5.86387,10.2022 6.21132,9.85626 6.62928,9.61595 C7.04724,9.37565 7.52104,9.24944 8.00316,9.2499963 Z M6,6 C6.55228,6 7,6.44772 7,7 C7,7.55228 6.55228,8 6,8 C5.44772,8 5,7.55228 5,7 C5,6.44772 5.44772,6 6,6 Z M10,6 C10.5523,6 11,6.44772 11,7 C11,7.55228 10.5523,8 10,8 C9.44772,8 9,7.55228 9,7 C9,6.44772 9.44772,6 10,6 Z"/>
</svg>
