<svg xmlns="http://www.w3.org/2000/svg" width="16" height="16" viewBox="0 0 16 16">
  <path fill="#000000" fillRule="evenodd" d="M2,2 L14,2 C15.0543909,2 15.9181678,2.81587733 15.9945144,3.85073759 L16,4 L16,12 C16,13.0543909 15.18415,13.9181678 14.1492661,13.9945144 L14,14 L2,14 C0.945638682,14 0.0818349215,13.18415 0.00548573939,12.1492661 L0,12 L0,4 C0,2.94563773 0.815878246,2.08183483 1.85073772,2.00548573 L2,2 L14,2 L2,2 Z M14,4 L2,4 L2,12 L14,12 L14,4 Z M5,9 L5,11 L4,11 C3.44772,11 3,10.5523 3,10 L3,9 L5,9 Z M9,9 L9,10 C9,10.51285 8.61395571,10.9355092 8.11662025,10.9932725 L8,11 L6,11 L6,9 L9,9 Z M6,5 L6,8 L3,8 L3,6 C3,5.44772 3.44772,5 4,5 L6,5 Z M8,5 C8.51284071,5 8.93550786,5.38604429 8.99327234,5.88337975 L9,6 L9,8 L7,8 L7,5 L8,5 Z"/>
</svg>
