<svg xmlns="http://www.w3.org/2000/svg" width="16" height="16" viewBox="0 0 16 16">
  <path fill="#000000" fillRule="evenodd" d="M16,8 C16,12.4183 12.4183,16 8,16 C3.58172,16 0,12.4183 0,8 C0,3.58172 3.58172,0 8,0 C12.4183,0 16,3.58172 16,8 Z M14,8 C14,11.3137 11.3137,14 8,14 C4.68629,14 2,11.3137 2,8 C2,4.68629 4.68629,2 8,2 C11.3137,2 14,4.68629 14,8 Z M8,12 C10.2091,12 12,10.2091 12,8 L4,8 C4,10.2091 5.79086,12 8,12 Z M5.25236,4.69961 C5.48034,4.56853 5.73877,4.4997 6.00175,4.49999902 C6.26472,4.50031 6.523,4.56974 6.75068,4.70134 C6.97835,4.83295 7.16743,5.0221 7.29895,5.24982 C7.43705,5.48895 7.35516,5.79476 7.11603,5.93286 C6.8769,6.07096 6.57109,5.98907 6.43299,5.74994 C6.38915,5.67403 6.32613,5.61098 6.25023,5.56711 C6.17434,5.52325 6.08825,5.5001 6.00059,5.49999902 C5.91293,5.4999 5.82679,5.52284 5.75079,5.56654 C5.6748,5.61023 5.61163,5.67313 5.56761,5.74894 C5.42896,5.98775 5.12296,6.06894 4.88415,5.93028 C4.64535,5.79162 4.56416,5.48563 4.70282,5.24682 C4.83486,5.0194 5.02437,4.83069 5.25236,4.69961 Z M10.0017,4.49999902 C9.73877,4.4997 9.48034,4.56853 9.25236,4.69961 C9.02437,4.83069 8.83486,5.0194 8.70282,5.24682 C8.56416,5.48563 8.64535,5.79162 8.88415,5.93028 C9.12296,6.06894 9.42896,5.98775 9.56761,5.74894 C9.61163,5.67313 9.6748,5.61023 9.75079,5.56654 C9.82679,5.52284 9.91293,5.4999 10.0006,5.49999902 C10.0882,5.5001 10.1743,5.52325 10.2502,5.56711 C10.3261,5.61098 10.3892,5.67403 10.433,5.74994 C10.5711,5.98907 10.8769,6.07096 11.116,5.93286 C11.3552,5.79476 11.4371,5.48895 11.2989,5.24982 C11.1674,5.0221 10.9784,4.83295 10.7507,4.70134 C10.523,4.56974 10.2647,4.50031 10.0017,4.49999902 Z"/>
</svg>
