<svg xmlns="http://www.w3.org/2000/svg" width="16" height="16" viewBox="0 0 16 16">
  <path fill="#000000" fillRule="evenodd" d="M8,0 C12.4183,0 16,3.58172 16,8 C16,12.4183 12.4183,16 8,16 C3.58172,16 0,12.4183 0,8 C0,3.58172 3.58172,0 8,0 Z M8,2 C4.68629,2 2,4.68629 2,8 C2,11.3137 4.68629,14 8,14 C11.3137,14 14,11.3137 14,8 C14,4.68629 11.3137,2 8,2 Z M11,9 C11,10.6569 9.65685,12 8,12 C6.40232321,12 5.09633941,10.7511226 5.00509271,9.17627735 L5,9 L11,9 Z M6,5 C6.55228,5 7,5.44772 7,6 C7,6.55228 6.55228,7 6,7 C5.44772,7 5,6.55228 5,6 C5,5.44772 5.44772,5 6,5 Z M10,5 C10.5523,5 11,5.44772 11,6 C11,6.55228 10.5523,7 10,7 C9.44771,7 9,6.55228 9,6 C9,5.44772 9.44771,5 10,5 Z"/>
</svg>
