<svg xmlns="http://www.w3.org/2000/svg" width="16" height="16" viewBox="0 0 16 16">
  <path fill="#000000" d="M7.70708,8.29289 L10.4142,11 L7.70708,13.7071 C7.31655,14.0976 6.68339,14.0976 6.29286,13.7071 C5.90234,13.3166 5.90234,12.6834 6.29286,12.2929 L6.58576,12 L1,12 C0.447715,12 -1.59872116e-14,11.5523 -1.59872116e-14,11 C-1.59872116e-14,10.4477 0.447715,10 1,10 L6.58576,10 L6.29286,9.70711 C5.90234,9.31658 5.90234,8.68342 6.29286,8.29289 C6.68339,7.90237 7.31655,7.90237 7.70708,8.29289 Z M15,10 C15.5523,10 16,10.4477 16,11 C16,11.5523 15.5523,12 15,12 L12,12 C11.4477,12 11,11.5523 11,11 C11,10.4477 11.4477,10 12,10 L15,10 Z M1,5 L15,5 C15.5523,5 16,5.44772 16,6 C16,6.51283143 15.613973,6.93550653 15.1166239,6.9932722 L15,7 L1,7 C0.447715,7 1.59872116e-14,6.55228 1.59872116e-14,6 C1.59872116e-14,5.48716857 0.386039974,5.06449347 0.883378828,5.0067278 L1,5 Z"/>
</svg>
