<svg xmlns="http://www.w3.org/2000/svg" width="16" height="16" viewBox="0 0 16 16">
  <g fill="#000000" transform="translate(0 5)">
    <path d="M1,0 C0.447715,0 0,0.44772 0,1 C0,1.55228 0.447715,2 1,2 L12.5,2 C13.3284,2 14,2.67157 14,3.5 C14,4.32843 13.3284,5 12.5,5 L9.41424,5 L9.70714,4.70711 C10.0977,4.31658 10.0977,3.68342 9.70714,3.29289 C9.31661,2.90237 8.68345,2.90237 8.29292,3.29289 L5.58582,6 L8.29292,8.7071 C8.68345,9.0976 9.31661,9.0976 9.70714,8.7071 C10.0977,8.3166 10.0977,7.6834 9.70714,7.2929 L9.41424,7 L12.5,7 C14.433,7 16,5.433 16,3.5 C16,1.567 14.433,0 12.5,0 L1,0 Z"/>
    <path d="M0,6 C0,5.4477 0.447715,5 1,5 L4,5 C4.55228,5 5,5.4477 5,6 C5,6.5523 4.55228,7 4,7 L1,7 C0.447715,7 0,6.5523 0,6 Z"/>
  </g>
</svg>
