<svg xmlns="http://www.w3.org/2000/svg" width="16" height="16" viewBox="0 0 16 16">
  <path fill="#000000" fillRule="evenodd" d="M3,2 C3.51284068,2 3.93550785,2.38603566 3.99327234,2.8833779 L4,3 L4,10.5858 L4.29288996,10.2929 C4.68341996,9.90237 5.31657996,9.90237 5.70710996,10.2929 C6.06758996,10.6533615 6.09531919,11.2206207 5.79029765,11.6128973 L5.70710996,11.7071 L3,14.4142 L0.292892962,11.7071 C-0.0976310375,11.3166 -0.0976309375,10.6834 0.292892962,10.2929 C0.653376655,9.93241077 1.220606,9.90468083 1.61290144,10.2097102 L1.70710996,10.2929 L2,10.5858 L2,3 C2,2.44771 2.44771996,2 3,2 Z M15,11 C15.5523,11 16,11.4477 16,12 C16,12.5523 15.5523,13 15,13 L8.99999996,13 C8.44770996,13 7.99999996,12.5523 7.99999996,12 C7.99999996,11.4477 8.44770996,11 8.99999996,11 L15,11 Z M8.99999996,7 L13,7 C13.5523,7 14,7.44772 14,8 C14,8.51283143 13.6139729,8.93550653 13.1166239,8.9932722 L13,9 L8.99999996,9 C8.44770996,9 7.99999996,8.55228 7.99999996,8 C7.99999996,7.48716857 8.38603563,7.06449347 8.88337787,7.0067278 L8.99999996,7 Z M9.99999996,3 C10.5523,3 11,3.44772 11,4 C11,4.55228 10.5523,5 9.99999996,5 L8.99999996,5 C8.44770996,5 7.99999996,4.55228 7.99999996,4 C7.99999996,3.44772 8.44770996,3 8.99999996,3 L9.99999996,3 Z"/>
</svg>
