<svg xmlns="http://www.w3.org/2000/svg" width="16" height="16" viewBox="0 0 16 16">
  <path fill="#000000" fillRule="evenodd" d="M3,2 C3.5522903,2 4,2.44771 4,3 L4,10.5858 L4.2928903,10.2929 C4.6834203,9.90237 5.3165803,9.90237 5.7071103,10.2929 C6.0976303,10.6834 6.0976303,11.3166 5.7071103,11.7071 L3,14.4142 L0.2928933,11.7071 C-0.0976311,11.3166 -0.0976311,10.6834 0.2928933,10.2929 C0.6834173,9.90237 1.3165803,9.90237 1.7071103,10.2929 L2,10.5858 L2,3 C2,2.44771 2.4477203,2 3,2 Z M9.0000003,11 L10.0000003,11 C10.552285,11 11.0000003,11.4477153 11.0000003,12 C11.0000003,12.5128358 10.6139601,12.9355072 10.1166214,12.9932723 L10.0000003,13 L9.0000003,13 C8.44771555,13 8.0000003,12.5522847 8.0000003,12 C8.0000003,11.4871642 8.38604049,11.0644928 8.88337917,11.0067277 L9.0000003,11 L10.0000003,11 L9.0000003,11 Z M9.0000003,7 L13.0000003,7 C13.552285,7 14.0000003,7.44771525 14.0000003,8 C14.0000003,8.51283584 13.6139601,8.93550716 13.1166214,8.99327227 L13.0000003,9 L9.0000003,9 C8.44771555,9 8.0000003,8.55228475 8.0000003,8 C8.0000003,7.48716416 8.38604049,7.06449284 8.88337917,7.00672773 L9.0000003,7 Z M15.0000003,3 C15.552285,3 16.0000003,3.44771525 16.0000003,4 C16.0000003,4.51283584 15.6139601,4.93550716 15.1166214,4.99327227 L15.0000003,5 L9.0000003,5 C8.44771555,5 8.0000003,4.55228475 8.0000003,4 C8.0000003,3.48716416 8.38604049,3.06449284 8.88337917,3.00672773 L9.0000003,3 L15.0000003,3 Z"/>
</svg>
