<svg xmlns="http://www.w3.org/2000/svg" width="16" height="16" viewBox="0 0 16 16">
  <path fill="#000000" d="M7.998449,0 L10.099759,1.53282 L12.700759,1.52786 L13.499759,4.00306 L15.606859,5.52786 L14.798459,8 L15.606859,10.4721 L13.499759,11.9969 L12.700759,14.4721 L10.099759,14.4672 L7.998449,16 L5.897139,14.4672 L3.296169,14.4721 L2.497139,11.9969 L0.39,10.4721 L1.198449,8 L0.39,5.52786 L2.497139,4.00306 L3.296169,1.52786 L5.897139,1.53282 L7.998449,0 Z M7.998449,2.47556 L6.547379,3.53406 L4.751269,3.53064 L4.199499,5.2399 L2.744399,6.29286 L3.302679,8 L2.744399,9.70714 L4.199499,10.7601 L4.751269,12.4694 L6.547379,12.4659 L7.998449,13.5244 L9.449529,12.4659 L11.245659,12.4694 L11.797459,10.7601 L13.252459,9.70714 L12.694259,8 L13.252459,6.29286 L11.797459,5.2399 L11.245659,3.53064 L9.449529,3.53406 L7.998449,2.47556 Z M8.038899,10 C8.591189,10 9.038929,10.4477 9.038929,11 C9.038929,11.5523 8.591209,12 8.038929,12 C7.486639,12 7.038929,11.5523 7.038929,11 C7.038929,10.4477 7.486629,10 8.038899,10 Z M8.038899,4 C8.764689,4 9.267059,4.72492 9.012219,5.40449 L8.038899,10 L7.065589,5.40449 C6.810749,4.72492 7.313119,4 8.038899,4 Z"/>
</svg>
