<svg xmlns="http://www.w3.org/2000/svg" width="16" height="16" viewBox="0 0 16 16">
  <path fill="#000000" fillRule="evenodd" d="M5.86928,5.83456 C5.83328,5.92112 5.75188,5.98026 5.65843,5.98776 L1.54482,6.31754 C1.0206,6.35957 0.80804,7.01377 1.20744,7.3559 L4.34158,10.04062 C4.41277,10.10161 4.44387,10.1973 4.42211,10.28849 L3.46458,14.3027 C3.34256,14.8142 3.89906,15.2185 4.34786,14.9444 L7.86969,12.7933 C7.94969,12.7444 8.05031,12.7444 8.13031,12.7933 L11.6521,14.9444 C12.1009,15.2185 12.6574,14.8142 12.5354,14.3027 L11.5779,10.28849 C11.5561,10.1973 11.5872,10.10161 11.6584,10.04062 L14.7926,7.3559 C15.192,7.01377 14.9794,6.35957 14.4552,6.31754 L10.3416,5.98776 C10.2481,5.98026 10.1667,5.92112 10.1307,5.83456 L8.5459,2.0242 C8.34393,1.53862 7.65606,1.53862 7.4541,2.0242 L5.86928,5.83456 Z M8,5.91962 L7.71592,6.60262 C7.39191,7.38165 6.65929,7.91393 5.81826,7.98136 L5.0809,8.04047 L5.64269,8.5217 C6.28346,9.07059 6.5633,9.93184 6.36753,10.7525 L6.1959,11.4721 L6.82718,11.0865 C7.54721,10.6467 8.45278,10.6467 9.17282,11.0865 L9.8041,11.4721 L9.63247,10.7525 C9.4367,9.93185 9.71653,9.0706 10.3573,8.5217 L10.9191,8.04047 L10.1817,7.98136 C9.34072,7.91393 8.60809,7.38166 8.28407,6.60262 L8,5.91962 Z"/>
</svg>
