<svg width="16" height="16" xmlns="http://www.w3.org/2000/svg"><path d="M4.513 5.257c0 .266.026.514.077.743h2.36a1.835 1.835 0 01-.224-.265 1.157 1.157 0 01-.142-.585c0-.424.165-.755.496-.99.33-.248.773-.372 1.327-.372.496 0 .944.088 1.345.265.401.177.79.419 1.168.726l1.045-1.31a4.91 4.91 0 00-1.611-1.062A4.842 4.842 0 008.407 2c-.566 0-1.091.083-1.575.248a3.74 3.74 0 00-1.221.69 3.336 3.336 0 00-.815 1.044c-.188.39-.283.814-.283 1.275zM8.177 14a6.004 6.004 0 01-2.265-.443A5.913 5.913 0 014 12.301l1.204-1.398c.413.389.885.708 1.415.955a3.894 3.894 0 001.593.354c.661 0 1.163-.135 1.505-.407a1.31 1.31 0 00.513-1.08c0-.235-.047-.436-.142-.601a1.156 1.156 0 00-.371-.425 2.588 2.588 0 00-.567-.354 10.36 10.36 0 00-.708-.318L8.382 9H2V7h12v2h-2.046c.08.14.148.291.205.451.118.319.177.69.177 1.115 0 .472-.094.915-.283 1.328a3.227 3.227 0 01-.832 1.097c-.354.307-.79.555-1.31.744-.507.177-1.085.265-1.734.265z" fill="#000"/></svg>