<svg xmlns="http://www.w3.org/2000/svg" width="16" height="16" viewBox="0 0 16 16">
  <path fill="#000000" d="M13.5,2.13397 C13.9783,2.41012 14.1422,3.02171 13.866,3.5 L12.6872,5.54177 C12.6693,5.57925 12.6488,5.61603 12.6258,5.65189 L12.6093,5.67664 L9.62879,10.8391 C9.8625,11.1664 10,11.5672 10,12 C10,13.1046 9.10457,14 8,14 C6.89543,14 6,13.1046 6,12 C6,10.9636 6.78831,10.1113 7.79803,10.0101 L10.4011,5.5014 C9.71258,5.20073 8.97101,5.0309 8.21451,5.00384 C7.13787,4.96532 6.07072,5.2174 5.12511,5.7336 C4.1795,6.2498 3.39032,7.01108 2.84044,7.9375 C2.29055,8.86393 2.00024,9.92132 2,10.9986 C1.99988,11.5509 1.55206,11.9985 0.999774,11.9984 C0.44749,11.9983 2.39808173e-13,11.5505 2.39808173e-13,10.9982 C0.000324182,9.56176 0.387399,8.1519 1.12058,6.91667 C1.85376,5.68144 2.906,4.6664 4.16681,3.97813 C5.42763,3.28986 6.85049,2.95376 8.28601,3.00512 C9.36996,3.04389 10.4309,3.3025 11.4058,3.76119 L12.134,2.5 C12.4101,2.02171 13.0217,1.85783 13.5,2.13397 Z M13.4873,6.54027 C13.9608,6.25605 14.5751,6.40953 14.8593,6.88307 C15.6057,8.12662 16,9.54967 16,11 C16,11.5523 15.5523,12 15,12 C14.4477,12 14,11.5523 14,11 C14,9.91225 13.7043,8.84496 13.1445,7.9123 C12.8603,7.43876 13.0138,6.82448 13.4873,6.54027 Z"/>
</svg>
