<svg xmlns="http://www.w3.org/2000/svg" width="16" height="16" viewBox="0 0 16 16">
  <path fill="#000000" fillRule="evenodd" d="M15.0001,4.58579 C15.3906,4.97631 15.3906,5.60948 15.0001,6 C14.6787,6.32133 14.1931,6.37826 13.8136,6.1708 L11,8.98435 L11,10.5858 C11,11.4767 9.92288,11.9229 9.29292,11.2929 L8,9.99998 L2.55627,14.5364 C2.19684,14.836 1.743773,15 1.2759,15 L1,15 L1,14.7241 C1,14.2562 1.164032,13.8032 1.463557,13.4437 L6,8 L4.70713,6.707106 C4.07716,6.07714 4.52333,5 5.41424,5 L7.01953,5 L9.83055,2.18899 C9.62146,1.80908 9.67793,1.32204 9.99997,0.999999 C10.3905,0.609475 11.0237,0.609475 11.4142,0.999999 L15.0001,4.58579 Z M7.84796,7 L11.2169,3.63108 L12.3709,4.78506 L9.00002,8.15592 L9.00002,8.17157 L7.82845,7 L7.84796,7 Z"/>
</svg>
