<svg xmlns="http://www.w3.org/2000/svg" width="16" height="16" viewBox="0 0 16 16">
  <path fill="#000000" fillRule="evenodd" d="M4,11 L0,11 L0,1 L10.8143,1 C12.6141,1 14.1922,2.20203 14.6705,3.93713 L15.9195,8.46857 C16.2705,9.74206 15.3123,11 13.9914,11 L11,11 L11,14.5858 C11,15.3668 10.3668,16 9.58579,16 C9.21071,16 8.851,15.851 8.58579,15.5858 L4,11 Z M5,9.17157 L9,13.1716 L9,9 L13.9914,9 L12.7424,4.46857 C12.5033,3.60102 11.7142,3 10.8143,3 L5,3 L5,9.17157 Z M3,3 L2,3 L2,9 L3,9 L3,3 Z"/>
</svg>
