<svg xmlns="http://www.w3.org/2000/svg" width="16" height="16" viewBox="0 0 16 16">
  <path fill="#000000" fillRule="evenodd" d="M4,5 L8.58579,0.414214 C8.851,0.148997 9.21071,0 9.58579,0 C10.3668,0 11,0.633165 11,1.41421 L11,5 L13.9914,5 C15.3123,5 16.2705,6.25794 15.9195,7.53143 L14.6705,12.0629 C14.1922,13.798 12.6141,15 10.8143,15 L0,15 L0,5 L4,5 Z M9,2.82843 L9,7 L13.9914,7 L12.7424,11.5314 C12.5033,12.399 11.7142,13 10.8143,13 L5,13 L5,6.82843 L9,2.82843 Z M3,7 L2,7 L2,13 L3,13 L3,7 Z"/>
</svg>
