<svg xmlns="http://www.w3.org/2000/svg" width="16" height="16" viewBox="0 0 16 16">
  <path fill="#000000" d="M9,0 C9.55229,0 10,0.447715 10,1 C10,1.55228 9.55229,2 9,2 L9,2.07089 C10.1894,2.24101 11.2823,2.71011 12.2001,3.3996 C12.2281,3.36242 12.259,3.32674 12.2929,3.29289 L13.2929,2.29289 C13.6834,1.90237 14.3166,1.90237 14.7071,2.29289 C15.0976,2.68342 15.0976,3.31658 14.7071,3.70711 L13.7071,4.70711 C13.6733,4.74096 13.6376,4.77187 13.6004,4.79985 C14.4792,5.9698 15,7.42409 15,9 C15,12.866 11.866,16 8,16 C4.13401,16 1,12.866 1,9 C1,5.47353 3.60771,2.55612 7,2.07089 L7,2 C6.44772,2 6,1.55228 6,1 C6,0.447715 6.44772,0 7,0 L9,0 Z M8,4 C5.23858,4 3,6.23858 3,9 C3,11.7614 5.23858,14 8,14 C10.7614,14 13,11.7614 13,9 C13,6.23858 10.7614,4 8,4 Z M8,5 C8.55229,5 9,5.44772 9,6 L9,8.58579 L10.7071,10.2929 C11.0976,10.6834 11.0976,11.3166 10.7071,11.7071 C10.3166,12.0976 9.68342,12.0976 9.29289,11.7071 L7,9.41421 L7,6 C7,5.44772 7.44772,5 8,5 Z"/>
</svg>
