<svg xmlns="http://www.w3.org/2000/svg" width="16" height="16" viewBox="0 0 16 16">
  <path fill="#000000" d="M11.0615,0.608967 C12.5233,1.21447 13.7727,2.23985 14.6518,3.55544 C15.5308,4.87103 16.0000001,6.41775 16.0000001,8.00000006 C16.0000001,8.55229 15.5523,9.00000006 15.0000001,9.00000006 C14.4477,9.00000006 14.0000001,8.55229 14.0000001,8.00000006 C14.0000001,6.81332 13.6481,5.65328 12.9888,4.66658 C12.3295,3.67989 11.3925,2.91085 10.2961,2.45673 C9.19975,2.0026 7.99335,1.88378 6.82946,2.11529 C5.66558,2.3468 4.59648,2.91825 3.75736,3.75736 C2.91825,4.59648 2.3468,5.66558 2.11529,6.82946 C1.88378,7.99335 2.0026,9.19975 2.45673,10.2961 C2.91085,11.3925 3.67989,12.3295 4.66658,12.9888 C5.65328,13.6481 6.81332,14.0000001 8.00000006,14.0000001 C8.55229,14.0000001 9.00000006,14.4477 9.00000006,15.0000001 C9.00000006,15.5523 8.55229,16.0000001 8.00000006,16.0000001 C6.41775,16.0000001 4.87104,15.5308 3.55544,14.6518 C2.23985,13.7727 1.21447,12.5233 0.608967,11.0615 C0.00346625,9.59966 -0.15496,7.99113 0.153721,6.43928 C0.462403,4.88743 1.22433,3.46197 2.34315,2.34315 C3.46197,1.22433 4.88743,0.462403 6.43928,0.153721 C7.99113,-0.15496 9.59966,0.00346625 11.0615,0.608967 Z M11.7071,10.2929 L13.0000025,11.5858 L14.2929,10.2929 C14.6834,9.90237 15.3166,9.90237 15.7071,10.2929 C16.0976,10.6834 16.0976,11.3166 15.7071,11.7071 L14.4142,13.0000025 L15.7071,14.2929 C16.0976,14.6834 16.0976,15.3166 15.7071,15.7071 C15.3166,16.0976 14.6834,16.0976 14.2929,15.7071 L13.0000025,14.4142 L11.7071,15.7071 C11.3166,16.0976 10.6834,16.0976 10.2929,15.7071 C9.90237,15.3166 9.90237,14.6834 10.2929,14.2929 L11.5858,13.0000025 L10.2929,11.7071 C9.90237,11.3166 9.90237,10.6834 10.2929,10.2929 C10.6834,9.90237 11.3166,9.90237 11.7071,10.2929 Z M8,3 C8.51283143,3 8.93550653,3.38604429 8.9932722,3.88337975 L9,4 L9,8 C9,8.51283143 8.61395571,8.93550653 8.11662025,8.9932722 L8,9 L5,9 C4.44772,9 4,8.55228 4,8 C4,7.48716857 4.38604429,7.06449347 4.88337975,7.0067278 L5,7 L7,7 L7,4 C7,3.44772 7.44772,3 8,3 Z"/>
</svg>
