<svg xmlns="http://www.w3.org/2000/svg" width="16" height="16" viewBox="0 0 16 16">
  <path fill="#000000" fillRule="evenodd" d="M6.04836,8 C6.45277,8.22401 6.82713,8.49871 7.16421,8.83579 C7.50129,9.17287 7.776,9.54723 8,9.95164 C8.22401,9.54723 8.49871,9.17287 8.83579,8.83579 C9.17287,8.49871 9.54723,8.224 9.95164,8 C9.54723,7.77599 9.17287,7.50129 8.83579,7.16421 C8.49871,6.82713 8.22401,6.45277 8,6.04836 C7.776,6.45277 7.50129,6.82713 7.16421,7.16421 C6.82713,7.50129 6.45277,7.776 6.04836,8 Z M8,0 C8.55229,0 8.99777,0.449377 9.01104,1.0015 C9.12633,5.79618 10.2038,6.87367 14.9985,6.98896 C15.5506,7.00223 16,7.44772 16,8 C16,8.55229 15.5506,8.99777 14.9985,9.01104 C10.2038,9.12633 9.12633,10.2038 9.01104,14.9985 C8.99777,15.5506 8.55229,16 8,16 C7.44772,16 7.00223,15.5506 6.98896,14.9985 C6.87367,10.2038 5.79618,9.12633 1.0015,9.01104 C0.449377,8.99777 0,8.55229 0,8 C0,7.44772 0.449377,7.00223 1.0015,6.98896 C5.79618,6.87367 6.87367,5.79618 6.98896,1.0015 C7.00223,0.449377 7.44772,0 8,0 Z"/>
</svg>
