<svg xmlns="http://www.w3.org/2000/svg" width="16" height="16" viewBox="0 0 16 16">
  <path fill="#000000" fillRule="evenodd" d="M4,2 C5.65685425,2 7,3.34314575 7,5 C7,5.67575081 6.7765771,6.2993184 6.39957171,6.80086239 C7.37120562,7.52882672 8,8.69098363 8,10 L8,14 L0,14 L0,10 C0,8.69098363 0.628794382,7.52882672 1.60081401,6.79909841 C1.2234229,6.2993184 1,5.67575081 1,5 C1,3.34314575 2.34314575,2 4,2 Z M4,8 C2.89543475,8 2,8.89543475 2,10 L2,12 L6,12 L6,10 C6,8.89543475 5.10456525,8 4,8 Z M11.7071,2.29289 L13.0000025,3.58579 L14.2929,2.29289 C14.6834,1.90237 15.3166,1.90237 15.7071,2.29289 C16.0976,2.68342 16.0976,3.31658 15.7071,3.70711 L14.4142,5 L15.7071,6.29289 C16.0976,6.68342 16.0976,7.31658 15.7071,7.70711 C15.3166,8.09763 14.6834,8.09763 14.2929,7.70711 L13.0000025,6.41421 L11.7071,7.70711 C11.3166,8.09763 10.6834,8.09763 10.2929,7.70711 C9.90237,7.31658 9.90237,6.68342 10.2929,6.29289 L11.5858,5 L10.2929,3.70711 C9.90237,3.31658 9.90237,2.68342 10.2929,2.29289 C10.6834,1.90237 11.3166,1.90237 11.7071,2.29289 Z M4,4 C3.44771525,4 3,4.44771525 3,5 C3,5.55228475 3.44771525,6 4,6 C4.55228475,6 5,5.55228475 5,5 C5,4.44771525 4.55228475,4 4,4 Z"/>
</svg>
