<svg xmlns="http://www.w3.org/2000/svg" width="16" height="16" viewBox="0 0 16 16">
  <path fill="#000000" d="M14,10 C14.5523,10 15,10.4477 15,11 C15,11.5523 14.5523,12 14,12 L12,12 L12,14 C12,14.5523 11.5523,15 11,15 C10.4477,15 10,14.5523 10,14 L10,10 L14,10 Z M5.87866,7.29288 C6.26918,7.68341 6.26918,8.31657 5.87866,8.7071 L3.75734,10.8284 C3.36681,11.2189 3.36681,11.8521 3.75734,12.2426 C4.14786,12.6332 4.78102,12.6332 5.17155,12.2426 L7.29287,10.1213 C7.68339,9.73078 8.31656,9.73078 8.70708,10.1213 C9.09761,10.5118 9.09761,11.145 8.70708,11.5355 L6.58576,13.6568 C5.41419,14.8284 3.51469,14.8284 2.34312,13.6568 C1.17155,12.4853 1.17155,10.5858 2.34312,9.4142 L4.4644425,7.29288 C4.85497,6.90236 5.48813,6.90236 5.87866,7.29288 Z M13.6568,2.34312 C14.781536,3.4678272 14.8265254,5.26339469 13.7917683,6.44177071 L13.6568,6.58576 L11.5355,8.70708 C11.145,9.09761 10.5118,9.09761 10.1213,8.70708 C9.76082,8.3466 9.73309077,7.77936497 10.0381123,7.3870765 L10.1213,7.29287 L12.2426,5.17155 C12.6332,4.78102 12.6332,4.14786 12.2426,3.75734 C11.8821385,3.39685077 11.3148793,3.36912083 10.9226027,3.67415018 L10.8284,3.75734 L8.7071,5.87866 C8.31657,6.26918 7.68341,6.26918 7.29288,5.87866 C6.9324,5.51817077 6.90467077,4.95094355 7.20969231,4.55865044 L7.29288,4.4644425 L9.4142,2.34312 C10.5858,1.17155 12.4853,1.17155 13.6568,2.34312 Z M5,1 C5.51283143,1 5.93550653,1.38604429 5.9932722,1.88337975 L6,2 L6,6 L2,6 C1.44772,6 1,5.55228 1,5 C1,4.48716857 1.38604429,4.06449347 1.88337975,4.0067278 L2,4 L4,4 L4,2 C4,1.44772 4.44772,1 5,1 Z"/>
</svg>
