<svg xmlns="http://www.w3.org/2000/svg" width="16" height="16" viewBox="0 0 16 16">
  <path fill="#000000" fillRule="evenodd" d="M14,9.41421 C14.5523,9.41421 15,9.86192 15,10.41418 L15,13.41418 C15,14.51878 14.1046,15.41418 13,15.41418 L3,15.41418 C1.89543,15.41418 1,14.51878 1,13.41418 L1,10.41418 C1,9.86192 1.44772,9.41421 2,9.41421 C2.55228,9.41421 3,9.86192 3,10.41418 L3,13.41418 L13,13.41418 L13,10.41418 C13,9.86192 13.4477,9.41421 14,9.41421 Z M8,2 L11.7071,5.7071 C12.0976,6.09763 12.0976,6.73079 11.7071,7.12132 C11.3166,7.51184 10.6834,7.51184 10.2929,7.12132 L9,5.82842 L9,10.41418 C9,10.96648 8.55228,11.41418 8,11.41418 C7.44772,11.41418 7,10.96648 7,10.41418 L7,5.82842 L5.70711,7.12132 C5.31658,7.51184 4.68342,7.51184 4.29289,7.12132 C3.90237,6.73079 3.90237,6.09763 4.29289,5.7071 L8,2 Z"/>
</svg>
