<svg xmlns="http://www.w3.org/2000/svg" width="16" height="16" viewBox="0 0 16 16">
  <path fill="#000000" d="M13.6569,2.2928975 C14.3997,3.0357575 14.989,3.9176775 15.3911,4.8882775 C15.7931,5.8588875 16,6.8991775 16,7.9497475 C16,9.0003275 15.7931,10.0406375 15.3911,11.0112375 C14.989,11.9818375 14.3997,12.8637375 13.6569,13.6066375 C13.2663,13.9971375 12.6332,13.9971375 12.2427,13.6066375 C11.8521,13.2160375 11.8521,12.5829375 12.2427,12.1924375 C12.7998,11.6352375 13.2418,10.9738375 13.5433,10.2458375 C13.8448,9.5178975 14,8.7376775 14,7.9497475 C14,7.1618175 13.8448,6.3815975 13.5433,5.6536475 C13.2418,4.9256975 12.7998,4.2642575 12.2427,3.7071075 C11.8521,3.3165775 11.8521,2.6834175 12.2427,2.2928975 C12.6332,1.9023675 13.2663,1.9023675 13.6569,2.2928975 Z M8.00003,3.6726775 L8.00003,12.2264375 C8.00003,12.9943375 7.17049,13.4756375 6.50383,13.0946375 L2.7508,10.9497375 L1.13686838e-13,10.9497375 L1.13686838e-13,4.9497375 L2.74854,4.9497375 L6.50399,2.8043775 C7.17065,2.4235375 8.00003,2.9049075 8.00003,3.6726775 Z M11.5355,4.4141975 C11.9998,4.8784975 12.3681,5.4296875 12.6194,6.0363175 C12.8707,6.6429475 13,7.2931275 13,7.9497375 C13,8.6063475 12.8707,9.2565275 12.6194,9.8631475 C12.3681,10.4697375 11.9998,11.0209375 11.5355,11.4852375 C11.145,11.8758375 10.5118,11.8758375 10.1213,11.4852375 C9.7308,11.0947375 9.7308,10.4615375 10.1213,10.0710375 C10.3999,9.7924775 10.6209,9.4617575 10.7716,9.0977875 C10.9224,8.7338075 11,8.3436975 11,7.9497375 C11,7.5557675 10.9224,7.1656575 10.7716,6.8016875 C10.6209,6.4377075 10.3999,6.1069875 10.1213,5.8284175 C9.7308,5.4378875 9.7308,4.8047275 10.1213,4.4141975 C10.5118,4.0236775 11.145,4.0236775 11.5355,4.4141975 Z M6.00003,5.3956175 L3.27954,6.9497375 L2,6.9497375 L2,8.9497375 L3.28199,8.9497375 L6.00003,10.5031375 L6.00003,5.3956175 Z"/>
</svg>
